<?xml version="1.0" encoding="UTF-8"?>
<svg id="_图层_2" data-name="图层 2" xmlns="http://www.w3.org/2000/svg" xmlns:xlink="http://www.w3.org/1999/xlink" viewBox="0 0 393.33 284.16">
  <defs>
    <style>
      .cls-1 {
        fill: url(#_橙色_黄色-48);
      }

      .cls-1, .cls-2, .cls-3, .cls-4, .cls-5, .cls-6, .cls-7, .cls-8, .cls-9, .cls-10, .cls-11, .cls-12, .cls-13, .cls-14, .cls-15, .cls-16, .cls-17, .cls-18, .cls-19, .cls-20, .cls-21, .cls-22, .cls-23, .cls-24, .cls-25, .cls-26, .cls-27, .cls-28, .cls-29, .cls-30, .cls-31, .cls-32, .cls-33, .cls-34, .cls-35, .cls-36, .cls-37, .cls-38, .cls-39, .cls-40, .cls-41, .cls-42, .cls-43, .cls-44, .cls-45, .cls-46, .cls-47, .cls-48, .cls-49, .cls-50, .cls-51, .cls-52, .cls-53, .cls-54, .cls-55, .cls-56, .cls-57, .cls-58, .cls-59, .cls-60, .cls-61, .cls-62, .cls-63, .cls-64, .cls-65, .cls-66, .cls-67, .cls-68, .cls-69, .cls-70, .cls-71, .cls-72, .cls-73, .cls-74, .cls-75, .cls-76, .cls-77, .cls-78, .cls-79, .cls-80, .cls-81, .cls-82, .cls-83, .cls-84, .cls-85, .cls-86, .cls-87, .cls-88, .cls-89 {
        fill-rule: evenodd;
        stroke: #515151;
        stroke-miterlimit: 10;
        stroke-width: 1.23px;
      }

      .cls-2 {
        fill: url(#_橙色_黄色-75);
      }

      .cls-3 {
        fill: url(#_橙色_黄色-66);
      }

      .cls-4 {
        fill: url(#_橙色_黄色-60);
      }

      .cls-5 {
        fill: url(#_橙色_黄色);
      }

      .cls-6 {
        fill: url(#_橙色_黄色-13);
      }

      .cls-7 {
        fill: url(#_橙色_黄色-62);
      }

      .cls-8 {
        fill: url(#_橙色_黄色-19);
      }

      .cls-9 {
        fill: url(#_橙色_黄色-18);
      }

      .cls-10 {
        fill: url(#_橙色_黄色-37);
      }

      .cls-11 {
        fill: url(#_橙色_黄色-50);
      }

      .cls-12 {
        fill: url(#_橙色_黄色-65);
      }

      .cls-13 {
        fill: url(#_橙色_黄色-69);
      }

      .cls-14 {
        fill: url(#_橙色_黄色-73);
      }

      .cls-15 {
        fill: url(#_橙色_黄色-11);
      }

      .cls-16 {
        fill: url(#_橙色_黄色-87);
      }

      .cls-17 {
        fill: url(#_橙色_黄色-23);
      }

      .cls-18 {
        fill: url(#_橙色_黄色-24);
      }

      .cls-19 {
        fill: url(#_橙色_黄色-16);
      }

      .cls-20 {
        fill: url(#_橙色_黄色-76);
      }

      .cls-21 {
        fill: url(#_橙色_黄色-58);
      }

      .cls-22 {
        fill: url(#_橙色_黄色-39);
      }

      .cls-23 {
        fill: url(#_橙色_黄色-71);
      }

      .cls-24 {
        fill: url(#_橙色_黄色-26);
      }

      .cls-25 {
        fill: url(#_橙色_黄色-74);
      }

      .cls-26 {
        fill: url(#_橙色_黄色-83);
      }

      .cls-27 {
        fill: url(#_橙色_黄色-5);
      }

      .cls-90 {
        opacity: .8;
      }

      .cls-28 {
        fill: url(#_橙色_黄色-35);
      }

      .cls-29 {
        fill: url(#_橙色_黄色-55);
      }

      .cls-30 {
        fill: url(#_橙色_黄色-51);
      }

      .cls-31 {
        fill: url(#_橙色_黄色-32);
      }

      .cls-32 {
        fill: url(#_橙色_黄色-82);
      }

      .cls-33 {
        fill: url(#_橙色_黄色-22);
      }

      .cls-34 {
        fill: url(#_橙色_黄色-9);
      }

      .cls-35 {
        fill: url(#_橙色_黄色-46);
      }

      .cls-36 {
        fill: url(#_橙色_黄色-14);
      }

      .cls-37 {
        fill: url(#_橙色_黄色-72);
      }

      .cls-38 {
        fill: url(#_橙色_黄色-40);
      }

      .cls-39 {
        fill: url(#_橙色_黄色-80);
      }

      .cls-40 {
        fill: url(#_橙色_黄色-2);
      }

      .cls-41 {
        fill: url(#_橙色_黄色-7);
      }

      .cls-42 {
        fill: url(#_橙色_黄色-81);
      }

      .cls-43 {
        fill: url(#_橙色_黄色-64);
      }

      .cls-44 {
        fill: url(#_橙色_黄色-85);
      }

      .cls-45 {
        fill: url(#_橙色_黄色-49);
      }

      .cls-46 {
        fill: url(#_橙色_黄色-56);
      }

      .cls-47 {
        fill: url(#_橙色_黄色-54);
      }

      .cls-48 {
        fill: url(#_橙色_黄色-17);
      }

      .cls-49 {
        fill: url(#_橙色_黄色-31);
      }

      .cls-50 {
        fill: url(#_橙色_黄色-59);
      }

      .cls-51 {
        fill: url(#_橙色_黄色-29);
      }

      .cls-52 {
        fill: url(#_橙色_黄色-52);
      }

      .cls-53 {
        fill: url(#_橙色_黄色-44);
      }

      .cls-54 {
        fill: url(#_橙色_黄色-15);
      }

      .cls-55 {
        fill: url(#_橙色_黄色-86);
      }

      .cls-56 {
        fill: url(#_橙色_黄色-6);
      }

      .cls-57 {
        fill: url(#_橙色_黄色-67);
      }

      .cls-58 {
        fill: url(#_橙色_黄色-79);
      }

      .cls-59 {
        fill: url(#_橙色_黄色-33);
      }

      .cls-60 {
        fill: url(#_橙色_黄色-27);
      }

      .cls-61 {
        fill: url(#_橙色_黄色-70);
      }

      .cls-62 {
        fill: url(#_橙色_黄色-34);
      }

      .cls-63 {
        fill: url(#_橙色_黄色-28);
      }

      .cls-64 {
        fill: url(#_橙色_黄色-41);
      }

      .cls-65 {
        fill: url(#_橙色_黄色-36);
      }

      .cls-66 {
        fill: url(#_橙色_黄色-8);
      }

      .cls-67 {
        fill: url(#_橙色_黄色-30);
      }

      .cls-68 {
        fill: url(#_橙色_黄色-88);
      }

      .cls-69 {
        fill: url(#_橙色_黄色-68);
      }

      .cls-70 {
        fill: url(#_橙色_黄色-57);
      }

      .cls-71 {
        fill: url(#_橙色_黄色-10);
      }

      .cls-72 {
        fill: url(#_橙色_黄色-45);
      }

      .cls-73 {
        fill: url(#_橙色_黄色-4);
      }

      .cls-74 {
        fill: url(#_橙色_黄色-21);
      }

      .cls-75 {
        fill: url(#_橙色_黄色-77);
      }

      .cls-76 {
        fill: url(#_橙色_黄色-78);
      }

      .cls-77 {
        fill: url(#_橙色_黄色-53);
      }

      .cls-78 {
        fill: url(#_橙色_黄色-42);
      }

      .cls-79 {
        fill: url(#_橙色_黄色-3);
      }

      .cls-80 {
        fill: url(#_橙色_黄色-12);
      }

      .cls-81 {
        fill: url(#_橙色_黄色-84);
      }

      .cls-82 {
        fill: url(#_橙色_黄色-89);
      }

      .cls-83 {
        fill: url(#_橙色_黄色-43);
      }

      .cls-84 {
        fill: url(#_橙色_黄色-25);
      }

      .cls-85 {
        fill: url(#_橙色_黄色-20);
      }

      .cls-86 {
        fill: url(#_橙色_黄色-38);
      }

      .cls-87 {
        fill: url(#_橙色_黄色-61);
      }

      .cls-88 {
        fill: url(#_橙色_黄色-63);
      }

      .cls-89 {
        fill: url(#_橙色_黄色-47);
      }
    </style>
    <linearGradient id="_橙色_黄色" data-name="橙色, 黄色" x1="261.32" y1="36.96" x2="311.4" y2="36.96" gradientUnits="userSpaceOnUse">
      <stop offset="0" stop-color="#fff21f"/>
      <stop offset=".01" stop-color="#feee1c"/>
      <stop offset=".1" stop-color="#fddc0c"/>
      <stop offset=".19" stop-color="#fcd003"/>
      <stop offset=".28" stop-color="#fccd00"/>
      <stop offset=".67" stop-color="#f1942e"/>
      <stop offset=".89" stop-color="#ea652d"/>
      <stop offset="1" stop-color="#e5352b"/>
    </linearGradient>
    <linearGradient id="_橙色_黄色-2" data-name="橙色, 黄色" x1="265.98" y1="36.53" x2="314.2" y2="36.53" xlink:href="#_橙色_黄色"/>
    <linearGradient id="_橙色_黄色-3" data-name="橙色, 黄色" x1="321.39" y1="29.58" x2="338.6" y2="29.58" xlink:href="#_橙色_黄色"/>
    <linearGradient id="_橙色_黄色-4" data-name="橙色, 黄色" x1="321.4" y1="30.86" x2="334.35" y2="30.86" xlink:href="#_橙色_黄色"/>
    <linearGradient id="_橙色_黄色-5" data-name="橙色, 黄色" x1="41.4" y1="55.45" x2="50.48" y2="55.45" xlink:href="#_橙色_黄色"/>
    <linearGradient id="_橙色_黄色-6" data-name="橙色, 黄色" x1="320.98" y1="32.23" x2="330.43" y2="32.23" xlink:href="#_橙色_黄色"/>
    <linearGradient id="_橙色_黄色-7" data-name="橙色, 黄色" x1="37.45" y1="57.93" x2="50.07" y2="57.93" xlink:href="#_橙色_黄色"/>
    <linearGradient id="_橙色_黄色-8" data-name="橙色, 黄色" x1="317.1" y1="37.16" x2="383.95" y2="37.16" xlink:href="#_橙色_黄色"/>
    <linearGradient id="_橙色_黄色-9" data-name="橙色, 黄色" x1="320.09" y1="33.55" x2="325.43" y2="33.55" xlink:href="#_橙色_黄色"/>
    <linearGradient id="_橙色_黄色-10" data-name="橙色, 黄色" x1="317.9" y1="40.18" x2="392.53" y2="40.18" xlink:href="#_橙色_黄色"/>
    <linearGradient id="_橙色_黄色-11" data-name="橙色, 黄色" x1="32.69" y1="59.45" x2="43.56" y2="59.45" xlink:href="#_橙色_黄色"/>
    <linearGradient id="_橙色_黄色-12" data-name="橙色, 黄色" x1="322.55" y1="44.05" x2="384.15" y2="44.05" xlink:href="#_橙色_黄色"/>
    <linearGradient id="_橙色_黄色-13" data-name="橙色, 黄色" x1="51.08" y1="63.61" x2="94.21" y2="63.61" xlink:href="#_橙色_黄色"/>
    <linearGradient id="_橙色_黄色-14" data-name="橙色, 黄色" x1="86.5" y1="53.15" x2="110.13" y2="53.15" xlink:href="#_橙色_黄色"/>
    <linearGradient id="_橙色_黄色-15" data-name="橙色, 黄色" x1="131.52" y1="91.02" x2="164.37" y2="91.02" xlink:href="#_橙色_黄色"/>
    <linearGradient id="_橙色_黄色-16" data-name="橙色, 黄色" x1="56.22" y1="65.43" x2="89.85" y2="65.43" xlink:href="#_橙色_黄色"/>
    <linearGradient id="_橙色_黄色-17" data-name="橙色, 黄色" x1="90.92" y1="56.73" x2="104.51" y2="56.73" xlink:href="#_橙色_黄色"/>
    <linearGradient id="_橙色_黄色-18" data-name="橙色, 黄色" x1="313.68" y1="57.06" x2="323.36" y2="57.06" xlink:href="#_橙色_黄色"/>
    <linearGradient id="_橙色_黄色-19" data-name="橙色, 黄色" x1="23.86" y1="66.65" x2="32.66" y2="66.65" xlink:href="#_橙色_黄色"/>
    <linearGradient id="_橙色_黄色-20" data-name="橙色, 黄色" x1="136.1" y1="72.65" x2="149.48" y2="72.65" xlink:href="#_橙色_黄色"/>
    <linearGradient id="_橙色_黄色-21" data-name="橙色, 黄色" x1="308.73" y1="56.37" x2="317.69" y2="56.37" xlink:href="#_橙色_黄色"/>
    <linearGradient id="_橙色_黄色-22" data-name="橙色, 黄色" x1="94.03" y1="60.91" x2="99.48" y2="60.91" xlink:href="#_橙色_黄色"/>
    <linearGradient id="_橙色_黄色-23" data-name="橙色, 黄色" x1="62.59" y1="65.28" x2="84.68" y2="65.28" xlink:href="#_橙色_黄色"/>
    <linearGradient id="_橙色_黄色-24" data-name="橙色, 黄色" x1="129.23" y1="74.27" x2="140.54" y2="74.27" xlink:href="#_橙色_黄色"/>
    <linearGradient id="_橙色_黄色-25" data-name="橙色, 黄色" x1="93.95" y1="64.4" x2="129.75" y2="64.4" xlink:href="#_橙色_黄色"/>
    <linearGradient id="_橙色_黄色-26" data-name="橙色, 黄色" x1="302.45" y1="56.89" x2="313.34" y2="56.89" xlink:href="#_橙色_黄色"/>
    <linearGradient id="_橙色_黄色-27" data-name="橙色, 黄色" x1="67.77" y1="66.14" x2="78.64" y2="66.14" xlink:href="#_橙色_黄色"/>
    <linearGradient id="_橙色_黄色-28" data-name="橙色, 黄色" x1="96.14" y1="71.32" x2="128.34" y2="71.32" xlink:href="#_橙色_黄色"/>
    <linearGradient id="_橙色_黄色-29" data-name="橙色, 黄色" x1="55.86" y1="75.59" x2="95.16" y2="75.59" xlink:href="#_橙色_黄色"/>
    <linearGradient id="_橙色_黄色-30" data-name="橙色, 黄色" x1="323.97" y1="60.19" x2="359.69" y2="60.19" xlink:href="#_橙色_黄色"/>
    <linearGradient id="_橙色_黄色-31" data-name="橙色, 黄色" x1="95.45" y1="76.49" x2="128.87" y2="76.49" xlink:href="#_橙色_黄色"/>
    <linearGradient id="_橙色_黄色-32" data-name="橙色, 黄色" x1="16.71" y1="89.24" x2="28.7" y2="89.24" xlink:href="#_橙色_黄色"/>
    <linearGradient id="_橙色_黄色-33" data-name="橙色, 黄色" x1="57.75" y1="81.44" x2="95.33" y2="81.44" xlink:href="#_橙色_黄色"/>
    <linearGradient id="_橙色_黄色-34" data-name="橙色, 黄色" x1="59.68" y1="84.57" x2="96.47" y2="84.57" xlink:href="#_橙色_黄色"/>
    <linearGradient id="_橙色_黄色-35" data-name="橙色, 黄色" x1="95.35" y1="84.05" x2="131.86" y2="84.05" xlink:href="#_橙色_黄色"/>
    <linearGradient id="_橙色_黄色-36" data-name="橙色, 黄色" x1="65.61" y1="88.22" x2="95.07" y2="88.22" xlink:href="#_橙色_黄色"/>
    <linearGradient id="_橙色_黄色-37" data-name="橙色, 黄色" x1="338.64" y1="81.21" x2="346.37" y2="81.21" xlink:href="#_橙色_黄色"/>
    <linearGradient id="_橙色_黄色-38" data-name="橙色, 黄色" x1="316.93" y1="92.48" x2="343.5" y2="92.48" xlink:href="#_橙色_黄色"/>
    <linearGradient id="_橙色_黄色-39" data-name="橙色, 黄色" x1="93.96" y1="92.39" x2="129.73" y2="92.39" xlink:href="#_橙色_黄色"/>
    <linearGradient id="_橙色_黄色-40" data-name="橙色, 黄色" x1="69.01" y1="91.09" x2="96.27" y2="91.09" xlink:href="#_橙色_黄色"/>
    <linearGradient id="_橙色_黄色-41" data-name="橙色, 黄色" x1="302.08" y1="91.49" x2="332.27" y2="91.49" xlink:href="#_橙色_黄色"/>
    <linearGradient id="_橙色_黄色-42" data-name="橙色, 黄色" x1="96.48" y1="98.7" x2="123.3" y2="98.7" xlink:href="#_橙色_黄色"/>
    <linearGradient id="_橙色_黄色-43" data-name="橙色, 黄色" x1="18.87" y1="113.24" x2="41.01" y2="113.24" xlink:href="#_橙色_黄色"/>
    <linearGradient id="_橙色_黄色-44" data-name="橙色, 黄色" x1="5.14" y1="124.37" x2="30.47" y2="124.37" xlink:href="#_橙色_黄色"/>
    <linearGradient id="_橙色_黄色-45" data-name="橙色, 黄色" x1="21.43" y1="118.79" x2="37.81" y2="118.79" xlink:href="#_橙色_黄色"/>
    <linearGradient id="_橙色_黄色-46" data-name="橙色, 黄色" x1="11.92" y1="136.66" x2="34.26" y2="136.66" xlink:href="#_橙色_黄色"/>
    <linearGradient id="_橙色_黄色-47" data-name="橙色, 黄色" x1="86.34" y1="136.34" x2="90.01" y2="136.34" xlink:href="#_橙色_黄色"/>
    <linearGradient id="_橙色_黄色-48" data-name="橙色, 黄色" x1="120.66" y1="140.17" x2="123.98" y2="140.17" xlink:href="#_橙色_黄色"/>
    <linearGradient id="_橙色_黄色-49" data-name="橙色, 黄色" x1="125.66" y1="147.28" x2="143.44" y2="147.28" xlink:href="#_橙色_黄色"/>
    <linearGradient id="_橙色_黄色-50" data-name="橙色, 黄色" x1="130.55" y1="145.08" x2="144.98" y2="145.08" xlink:href="#_橙色_黄色"/>
    <linearGradient id="_橙色_黄色-51" data-name="橙色, 黄色" x1="39.03" y1="150.21" x2="49.72" y2="150.21" xlink:href="#_橙色_黄色"/>
    <linearGradient id="_橙色_黄色-52" data-name="橙色, 黄色" x1="35.81" y1="153.44" x2="54.86" y2="153.44" xlink:href="#_橙色_黄色"/>
    <linearGradient id="_橙色_黄色-53" data-name="橙色, 黄色" x1="44.51" y1="154.85" x2="59.55" y2="154.85" xlink:href="#_橙色_黄色"/>
    <linearGradient id="_橙色_黄色-54" data-name="橙色, 黄色" x1="22.03" y1="156.67" x2="39.62" y2="156.67" xlink:href="#_橙色_黄色"/>
    <linearGradient id="_橙色_黄色-55" data-name="橙色, 黄色" x1="124.14" y1="149.95" x2="125.78" y2="149.95" xlink:href="#_橙色_黄色"/>
    <linearGradient id="_橙色_黄色-56" data-name="橙色, 黄色" x1="74.22" y1="157.3" x2="80" y2="157.3" xlink:href="#_橙色_黄色"/>
    <linearGradient id="_橙色_黄色-57" data-name="橙色, 黄色" x1="79.07" y1="159.27" x2="81.58" y2="159.27" xlink:href="#_橙色_黄色"/>
    <linearGradient id="_橙色_黄色-58" data-name="橙色, 黄色" x1="33.59" y1="161.35" x2="44.96" y2="161.35" xlink:href="#_橙色_黄色"/>
    <linearGradient id="_橙色_黄色-59" data-name="橙色, 黄色" x1="67.39" y1="166.97" x2="74.73" y2="166.97" xlink:href="#_橙色_黄色"/>
    <linearGradient id="_橙色_黄色-60" data-name="橙色, 黄色" x1="111.47" y1="173.26" x2="114.24" y2="173.26" xlink:href="#_橙色_黄色"/>
    <linearGradient id="_橙色_黄色-61" data-name="橙色, 黄色" x1="193.01" y1="188.76" x2="231.31" y2="188.76" xlink:href="#_橙色_黄色"/>
    <linearGradient id="_橙色_黄色-62" data-name="橙色, 黄色" x1="315.36" y1="186.45" x2="333.57" y2="186.45" xlink:href="#_橙色_黄色"/>
    <linearGradient id="_橙色_黄色-63" data-name="橙色, 黄色" x1="230.16" y1="181.83" x2="235.35" y2="181.83" xlink:href="#_橙色_黄色"/>
    <linearGradient id="_橙色_黄色-64" data-name="橙色, 黄色" x1="313.75" y1="186.24" x2="330.87" y2="186.24" xlink:href="#_橙色_黄色"/>
    <linearGradient id="_橙色_黄色-65" data-name="橙色, 黄色" x1="227.11" y1="185" x2="237.51" y2="185" xlink:href="#_橙色_黄色"/>
    <linearGradient id="_橙色_黄色-66" data-name="橙色, 黄色" x1="222.6" y1="187.41" x2="239.46" y2="187.41" xlink:href="#_橙色_黄色"/>
    <linearGradient id="_橙色_黄色-67" data-name="橙色, 黄色" x1="285.15" y1="194.58" x2="323.7" y2="194.58" xlink:href="#_橙色_黄色"/>
    <linearGradient id="_橙色_黄色-68" data-name="橙色, 黄色" x1="186.05" y1="200.04" x2="191.27" y2="200.04" xlink:href="#_橙色_黄色"/>
    <linearGradient id="_橙色_黄色-69" data-name="橙色, 黄色" x1="181.05" y1="202.33" x2="187.65" y2="202.33" xlink:href="#_橙色_黄色"/>
    <linearGradient id="_橙色_黄色-70" data-name="橙色, 黄色" x1="172.07" y1="214.4" x2="211.82" y2="214.4" xlink:href="#_橙色_黄色"/>
    <linearGradient id="_橙色_黄色-71" data-name="橙色, 黄色" x1="251.57" y1="34.42" x2="283.98" y2="34.42" xlink:href="#_橙色_黄色"/>
    <linearGradient id="_橙色_黄色-72" data-name="橙色, 黄色" x1="20.36" y1="142.45" x2="338.07" y2="142.45" xlink:href="#_橙色_黄色"/>
    <linearGradient id="_橙色_黄色-73" data-name="橙色, 黄色" x1="245.95" y1="41" x2="274.21" y2="41" xlink:href="#_橙色_黄色"/>
    <linearGradient id="_橙色_黄色-74" data-name="橙色, 黄色" x1="329.11" y1="30.33" x2="342.24" y2="30.33" xlink:href="#_橙色_黄色"/>
    <linearGradient id="_橙色_黄色-75" data-name="橙色, 黄色" x1="256.59" y1="44.4" x2="300.97" y2="44.4" xlink:href="#_橙色_黄色"/>
    <linearGradient id="_橙色_黄色-76" data-name="橙色, 黄色" x1="274.68" y1="58.05" x2="319.49" y2="58.05" xlink:href="#_橙色_黄色"/>
    <linearGradient id="_橙色_黄色-77" data-name="橙色, 黄色" x1="27.86" y1="62.18" x2="37.37" y2="62.18" xlink:href="#_橙色_黄色"/>
    <linearGradient id="_橙色_黄色-78" data-name="橙色, 黄色" x1="132.51" y1="87.67" x2="157.8" y2="87.67" xlink:href="#_橙色_黄色"/>
    <linearGradient id="_橙色_黄色-79" data-name="橙色, 黄色" x1="324.85" y1="54.18" x2="363.25" y2="54.18" xlink:href="#_橙色_黄色"/>
    <linearGradient id="_橙色_黄色-80" data-name="橙色, 黄色" x1="24.26" y1="124.65" x2="139.46" y2="124.65" xlink:href="#_橙色_黄色"/>
    <linearGradient id="_橙色_黄色-81" data-name="橙色, 黄色" x1="321.81" y1="66.43" x2="355.24" y2="66.43" xlink:href="#_橙色_黄色"/>
    <linearGradient id="_橙色_黄色-82" data-name="橙色, 黄色" x1="125.55" y1="106.81" x2="152.82" y2="106.81" xlink:href="#_橙色_黄色"/>
    <linearGradient id="_橙色_黄色-83" data-name="橙色, 黄色" x1="1.19" y1="120.46" x2="31.67" y2="120.46" xlink:href="#_橙色_黄色"/>
    <linearGradient id="_橙色_黄色-84" data-name="橙色, 黄色" x1="9.46" y1="129.83" x2="31.52" y2="129.83" xlink:href="#_橙色_黄色"/>
    <linearGradient id="_橙色_黄色-85" data-name="橙色, 黄色" x1="14.24" y1="144.24" x2="38.06" y2="144.24" xlink:href="#_橙色_黄色"/>
    <linearGradient id="_橙色_黄色-86" data-name="橙色, 黄色" x1="19.56" y1="150.85" x2="35.6" y2="150.85" xlink:href="#_橙色_黄色"/>
    <linearGradient id="_橙色_黄色-87" data-name="橙色, 黄色" x1="33.67" y1="165.14" x2="49.13" y2="165.14" xlink:href="#_橙色_黄色"/>
    <linearGradient id="_橙色_黄色-88" data-name="橙色, 黄色" x1="89.96" y1="173.37" x2="92.6" y2="173.37" xlink:href="#_橙色_黄色"/>
    <linearGradient id="_橙色_黄色-89" data-name="橙色, 黄色" x1="313.06" y1="197.83" x2="330.41" y2="197.83" xlink:href="#_橙色_黄色"/>
  </defs>
  <g class="cls-90">
    <path class="cls-5" d="M311.02,8.83c1.58,10.85-1.78,18.46-9.22,22.59-2.74,1.52-6.38,2.89-9.54,3.55-3.78,.79-7.82,.58-11.67,1.27-8.16,1.47-14.81,7.25-15.96,15.39-.48,3.37,.6,6.56,1.34,9.28,.36,1.33,.91,2.79,.74,4.18-2.38-.89-3.15-3.38-4.22-6.17-.5-1.3-.82-2.49-.98-3.48-.79-4.63,.96-9.65,2.36-12.38,2.33-4.53,7.06-8.94,12.69-10.66,3.86-1.18,8.13-.45,12.6-.95,6.15-.69,12.17-4.03,15.94-7.88,3.53-3.6,5.99-7.78,5.92-14.74Z"/>
    <path class="cls-40" d="M311.94,8.97c.64,.26,.82,1.27,1.01,1.97,1.37,5.11,2.01,12.3-.14,16.86-.9,1.92-3.92,5.53-5.72,7.04-2.72,2.27-6.66,4.71-10.37,5.61-2.76,.67-10.28,.73-11.13,.88-1.92,.33-3.83,.32-5.45,.98-4.85,1.97-7.16,4.58-9.48,8.86-1.92,3.53-2.86,7.06-1.97,12.91-7.03-12.68,.54-23.67,12.34-26.39,3.67-.85,7.51-.68,11.12-1.25,5.66-.88,13.95-5.28,16.79-9.2,3.01-4.14,4.24-10.64,3.01-18.27Z"/>
    <path class="cls-79" d="M321.39,19.35c5.96-.09,10.95,3.06,13.71,7.43,2.39,3.78,3.99,7.67,3.35,13.04-.81,.07-2.2-.76-3.17-1.14,1.06-8.6-5.66-16.14-13.76-16.4-.23-1.17,.23-2.16-.13-2.92Z"/>
    <path class="cls-73" d="M321.4,23.56c7.9,.94,12.06,5.98,12.94,14.61-.96-.29-1.76-.75-2.62-1.16-.63-6.54-4.68-9.33-10.02-10.71-.11-.52-.02-1.89-.31-2.73Z"/>
    <path class="cls-27" d="M47.18,39.12c2.7,6.99-3.13,11.66-2.84,17.9,.21,4.45,2.63,8.15,6.14,9.98-.29,1.48-.16,3.35-.51,4.78-3.65-2.24-7.58-5.48-8.37-10.79-1.25-8.34,4.07-15.34,5.59-21.87Z"/>
    <path class="cls-56" d="M321.42,27.77c5.2,.57,7.8,3.99,9.02,8.93-1.1-.27-1.95-.8-3.33-.76-.71-3.38-3.02-5.01-6.13-5.76,.31-.65,.59-1.32,.44-2.4Z"/>
    <path class="cls-41" d="M44.74,41.8c-1.18,5.84-5.05,10.76-4.48,18.16,.36,4.76,2.9,8.26,5.61,10.55,1.34,1.13,3.63,1.41,4.19,3.47-1.08,.45-3.71-.66-4.48-1.81-4.12-2.07-7.6-6.16-8.08-12.27-.37-4.71,.79-10.78,3.02-13.87,1.23-1.71,3.5-2.23,4.2-4.22Z"/>
    <path class="cls-66" d="M383.95,29.29c-8.42,.61-15.49,4.1-21.22,8.49-4.92,3.77-9.13,7.49-16.3,8.08-10.31,.85-17.61-6.84-29.33-4.33,.68-1.72,1.41-3.39,2.34-4.87,1.75,.33,3.16,0,4.77,.15,7.59,.67,13.23,7.67,22.79,5.73,10.51-2.14,16.07-12.39,27.2-13.89,3.52-.48,6.37-.18,9.74,.65Z"/>
    <path class="cls-34" d="M325.43,35.46c-1.73-.28-3.77-.22-5.34-.67,.09-1.26,.54-2.19,.95-3.16,2.19,.47,3.78,1.62,4.39,3.83Z"/>
    <path class="cls-71" d="M392.53,32.74c-3.96,.41-6.84-.56-10.44-.07-11.75,1.6-17.33,11.24-26.96,15.16-2.44,1-5.54,1.92-8.51,2.04-3.8,.15-7.67-.8-11.24-1.31-4.48-.65-8.14-2.13-13.63-1.75-1.37-1.06-2.72-3.16-3.84-3.85,5.46-.12,9.44,.61,13.62,1.57,4.69,1.08,7.94,3.15,13.5,2.86,7.51-.39,12.7-4.05,17.41-7.76,5.52-4.35,10.76-7.54,19.19-8.94,2.95-.49,6.64-.02,9.01,.69,.71,.21,1.67,.59,1.89,1.38Z"/>
    <path class="cls-15" d="M38.74,46.83c-3.57,6.69-3.16,22.53,4.82,25.05-11.89,2.12-13.02-15.56-8.19-22.7,1.11-.79,2.35-1.48,3.37-2.35Z"/>
    <path class="cls-80" d="M384.15,33.68c-5.68,2.28-10.69,4.58-15,8.38-1.4,1.23-2.29,2.92-3.66,4.2-1.7,1.6-3.95,3.05-6.03,4.31-4.18,2.52-9.78,4.01-15.94,3.85-5.92-.15-12.04-2.39-18.38-1.35-1.28-.97-2.05-3.52-2.6-4.65,7.75,.4,14.62,3.42,23.21,2.78,7.25-.54,14.22-4.1,19.05-8.02,5.98-4.86,10.45-8.97,19.34-9.5Z"/>
    <path class="cls-6" d="M55.06,79.05c-.66-2.12-3.09-2.44-3.68-4.23-.72-2.23-.02-6.17,.53-8.45,2.07-8.65,9.65-16.45,20.05-17.96,7.14-1.04,13.11,1.3,17.28,5.25,2.79,2.65,4.7,6.57,4.96,12.23-.76,.77-1.14,2.05-2.13,1.56-1.19-.59-.64-1.74-1.06-3.25-.44-1.54-1.8-3.59-3.17-5.17-3.36-3.86-7.92-6.68-14.95-6.45-1.22,.04-1.79,.16-3.64,.53-9.3,4.47-14.78,12.44-14.19,25.93Z"/>
    <path class="cls-36" d="M110.13,57.65c-1.43,.33-2.91,.61-4.35,.93-2.2-5.65-8.97-8.74-15.65-5.69-1.23-1.02-2.52-1.97-3.62-3.13,9.41-5.28,20.35,.45,23.62,7.89Z"/>
    <path class="cls-54" d="M164.37,50.21c-1.74,1.39-3.79,1.63-5.56,2.64-7.37,4.18-10.41,14.24-6.97,23.58,.87,2.37,1.72,4.85,2.7,6.84,3.28,6.67,8.38,12.65,8.85,21.2,.54,9.71-3.55,20.11-12.92,21.66-6.01,.99-12.72,1.16-15.27,6.38-.93-3.04-4.87-3.96-3.31-8.09,.44-.32,2.07,1.29,3.01,1.69,8.83,2.14,19.32-2.87,22.33-8.36,1.79-3.26,2.53-6.41,1.82-12.17-1.6-13.07-14.01-22.64-13.94-36.18,.03-6.99,3.93-12.41,8.03-16.49,2.72-1.55,6.36-4.79,11.23-2.71Z"/>
    <path class="cls-19" d="M89.85,66.83c-.79,.48-1.91-.34-2.94-.23-2.9-8.56-14.8-12.09-21.85-5.04-2.65,2.65-4.49,6.54-3.72,10.61-1.94,1.27-3.49,3.82-5.09,4.81-.22-5.02,.89-8.63,2.55-12.21,1.78-3.84,3.62-6.02,7.12-8.39,1.62-1.09,3.86-1.98,5.76-2.28,9.31-1.48,15.95,4.64,18.17,12.72Z"/>
    <path class="cls-48" d="M104.51,59.01c-1.58,.26-2.6,1.02-3.96,1.46-1.17-2.76-4.18-3.48-7.33-4.06-1-.5-1.24-1.84-2.3-2.28,5.9-3.11,11.69,.58,13.6,4.87Z"/>
    <path class="cls-9" d="M315.32,70.36c-.23-1.15-.74-2-.71-3.45,2.54-1.8,5.03-4.44,5.11-8.48,.09-4.83-2.35-10.17-6.03-11.63,.31-1.35,1.29-2.09,2.06-3.03,.18,0,.36-.02,.55-.03,4.01,3.49,8.4,10.56,6.69,18.01-.86,3.72-3.69,7.38-7.66,8.6Z"/>
    <path class="cls-8" d="M26.77,57.28c.17,.08,.33,.14,.38,.35-1.3,6.28,.11,14.89,5.51,16.23-1.04,.74-1.96,1.6-3.2,2.16-.99-1.11-2.29-1.48-3.23-2.6-3.76-4.46-2.63-12.06,.54-16.15Z"/>
    <path class="cls-85" d="M147.14,93.68c-1.99-.44-3.78-2.76-7.07-2.42-7.4-9.86-3.42-27.71,3.49-35.7,1.39-1.6,3.71-2.94,5.86-3.93,.36,.46-.94,.95-1.58,1.54-3.67,3.4-6.95,9.99-7.67,16.47-1.05,9.5,3.12,17.87,6.97,24.04Z"/>
    <path class="cls-74" d="M313.78,64.94c0-.63-.4-.85-.61-1.25,3.54-4.23,.53-12.51-4.45-13.17,1.31-.79,2.63-1.57,3.54-2.73,5.96,1.69,7.78,15.19,1.52,17.15Z"/>
    <path class="cls-33" d="M94.03,58.03c2.64,.11,4.24,1.36,5.45,3.05-1.06,.96-2.51,1.56-3.36,2.72-.8-1.81-1.17-4.09-2.1-5.76Z"/>
    <path class="cls-17" d="M84.68,65.78c-.76,.23-2.86-.46-4.02,.19-2.34-5.87-14.85-3.86-14.13,3.4-1.36,.62-2.57,1.39-3.93,2.01,.2-6.95,5.62-12.96,12.81-12.13,4.39,.51,6.94,3.38,9.28,6.54Z"/>
    <path class="cls-18" d="M140.5,56.99c.21,.63-.52,1.17-.84,1.69-2.56,4.14-5.04,10.41-5.27,16.91-.21,6.17,1.4,10.93,3.46,15.41-1.52,.13-3.4-.06-4.37,.57-2.29-3.95-3.51-8.05-4.06-12.64-1.23-10.23,3.46-18.35,10.89-21.93,.06,0,.12,0,.18,0Z"/>
    <path class="cls-84" d="M129.75,66.09c-.37,1.3-.87,2.48-1.1,3.9-3.88-4.65-12.13-7.95-21-6.54-4.56,.72-8.42,3.75-11.26,6.02-.91-.29-1.52-.89-2.44-1.17,3.7-5.62,11.44-10.2,20.82-9.38,6.48,.56,11.27,3.81,14.99,7.19Z"/>
    <path class="cls-24" d="M312.2,62.26c-2.25-4.06-5.62-6.89-9.75-8.89,1.34-.6,2.78-1.72,4.13-1.84,4.48-.39,8.92,6.73,5.62,10.73Z"/>
    <path class="cls-60" d="M78.64,65.88c-1.05,1.01-2.61,.69-3.99,.92-2.22,.37-4.54,1.29-6.88,1.78,.48-4.01,4.45-5.55,8.76-4.62,.58,.76,2.11,.5,2.1,1.92Z"/>
    <path class="cls-63" d="M128.34,71.28c-.32,2.04-.4,4.3-.23,6.79-7.38-3.31-10.37-10.27-22.21-8.87-1.54,.18-3.67,.96-5.23,1.71-1.33,.64-3.74,2.36-4.31,1.85-1.32-1.2,3.82-4.82,4.7-5.34,8.64-5.11,21.98-3.08,27.28,3.87Z"/>
    <path class="cls-51" d="M95.16,70.8c-1.08,1.68-3.27,.29-4.94,.04-13.34-1.99-28.14,4.26-32.91,13.24-.51-1.17-.89-2.48-1.45-3.6,3.85-5.77,11.13-11.44,20.48-12.66,2.08-.27,4.62-.84,6.93-.69,4.36,.29,8.41,1.98,11.89,3.67Z"/>
    <path class="cls-67" d="M359.69,55.5c-3.93,9.44-24.07,11.09-35.72,7.87,.61-.84,.46-2.38,.95-3.34,8.19-1.35,16.26,1.2,23.64,.19,4.35-.59,7.96-2.52,11.14-4.73Z"/>
    <path class="cls-49" d="M128.39,80.25c.44,.54,0,2.04,.49,2.55-5.24,1.07-8.25-2.8-11.59-4.97-3.12-2.03-6.57-3.73-12.22-2.92-3.17,.46-4.76,1.85-7.54,3.28-.93-.13-1.23-.95-2.07-1.18,2.65-3.78,7.22-6.9,12.87-7,6.98-.13,12.32,4.18,15.94,8.06,1.52,1.48,2.73,1.5,4.13,2.19Z"/>
    <path class="cls-31" d="M28.38,76.43c-1.3,2.52-4.48,4.5-5.69,7.77-1.65,4.48-1.23,10.97,2.27,13.45,1.07,.76,2.43,1.08,3.74,1.66-.92,1.37-.41,3.02-.14,4.95-5.94-2.67-11.85-7.4-11.86-14.84,0-4.62,2.71-10.36,5.97-13.46,.72-.69,1.85-.85,2.3-1.75,1.09,.79,2.06,1.71,3.4,2.22Z"/>
    <path class="cls-59" d="M95.33,74.45c-.26,.7-.8,1.14-1.01,1.88-15.59-5.14-32.09,3.73-36.13,14.85-1.45-4.96,.9-8.22,3.72-10.8,7.32-6.72,23.42-12.22,33.43-5.94Z"/>
    <path class="cls-62" d="M96.47,79.16c-.9,.82-2.2,1.26-2.06,3.03-11.03-4.95-27.22,.73-30.84,10.4-1.54,.03-2.53-.56-3.88-.74,3.45-11.88,22.85-19.61,36.79-12.69Z"/>
    <path class="cls-28" d="M129.17,85.17c.67,2.53,1.98,4.36,2.7,6.84-12.32-.57-17.9-14.01-32.67-9.48-.73,.22-1.43,.62-2.14,1.2-.56-.35-1.04-.78-1.7-1.02,.3-1.01,1.2-1.48,1.54-2.45,3.95-2.34,7.21-4.96,13.38-3.91,7.52,1.28,10.12,8.87,18.91,8.84Z"/>
    <path class="cls-65" d="M95.07,84.54c-.32,1.35-1.48,1.92-2.06,3.02-8.04-5.15-22.72-.99-25.14,6.84-.92-.21-1.17-1.15-2.25-1.18,2.49-4.42,6.66-9.08,12.89-10.48,6.38-1.44,11.78-.52,16.57,1.8Z"/>
    <path class="cls-10" d="M343.55,70.9c2.65,5.33,3.89,14.88,1.68,20.62,.59-8.23-1.42-16.32-6.59-19.84,1.61-.28,3.19-.59,4.91-.78Z"/>
    <path class="cls-86" d="M332.24,71.97c1.43,.02,3.05-.59,4.57-.21,1.03,.26,2.56,2.09,3.06,2.79,4.79,6.74,4.73,19.11,.47,25.99-4.52,7.29-11.5,12.17-23.41,12.8,5.64-1.9,10.97-4.55,14.82-8.38,3.28-3.26,6.28-6.93,7.59-12.4,.22-.9,.45-2.3,.56-3.02,1.03-6.61-2.35-15.11-7.65-17.57Z"/>
    <path class="cls-22" d="M129.73,93.38c-2.88,1.81-4.22,5.02-5.29,8.49-2.83-2.65-3.98-6.22-6.64-8.85-4.38-4.34-14.91-8.09-21.92-2.65-.8-.46-1.45-1.1-1.92-1.93,2.14-3.35,6.2-5.83,12.02-5.5,4.42,.25,8.39,2.82,11.96,5.13,3.89,2.51,7.74,4.2,11.79,5.32Z"/>
    <path class="cls-38" d="M96.27,94.74c-3.89-.24-6.6-3.27-10.6-3.54-6.56-.45-11.73,2.82-16.66,4.25,2.25-4.32,6.8-8.17,13.16-8.66,6.65-.52,11.88,2.9,14.1,7.96Z"/>
    <path class="cls-64" d="M307.9,84.26c-1.08,2.72-2.88,6.93-2.05,11.09,.51,2.56,1.22,4.88,3.35,6.04,2.48,1.47,5.68,1.73,9.25,1.07,6.49-1.19,14.34-10.66,10.21-19.34-.49-1.02-1.09-1.48-2.8-2.61-5.22-3.68-13.12,2.25-14.54,6.35-1.71,4.89,.5,9.9,4.68,10.22,4.98,.39,11.21-4.1,8.9-9.57-.34-.81-1.46-2.51-3.42-2.77-3.04-.41-6.02,2.09-6.01,4.67,0,.52-.7,3.07,1.99,3.39,2.73,.32,4.45-1.81,4.04-3.67-1.05,.12-2.2,3.06-4.32,1.66-.84-.91,.06-2.82,.36-3.22,1.88-2.37,6.44-1.73,6.73,1.98,.41,5.24-9.45,7.66-11.36,3.82-.31-.62-.68-2.48-.7-3.27-.11-4.78,6.29-9.98,11.91-7.87,2.7,1.01,5.06,6.77,3.43,10.83-1.02,2.55-4.84,6.02-7.02,6.73-5.33,1.76-10.46,.29-12.23-3.1-3.13-6.01,1.39-12.39,5.65-16.56,3.68-2.71,9.87-4.78,13.86-1.38,4.48,3.82,5.61,10.62,3.34,16.88-2.34,6.46-12.28,11.16-19.31,10.23-2.36-.31-5.8-1.9-7.31-3.69-3.04-3.61-3.17-11.14-.72-15.54,1.62-.57,3.12-1.24,4.1-2.39Z"/>
    <path class="cls-78" d="M123.28,108.52c-.81-.33-1.45-.85-2.43-.99-4.47-3.93-5.08-12.09-11.27-14.13-3.98-.98-7.81,.64-11.67,1.27-.34-1.23-.88-2.23-1.43-3.23,3.15-3.08,9.72-3.07,14.03-1.56,6.9,2.42,9.43,8.94,12.79,15.16-.28,1.28-.36,2.31-.02,3.48Z"/>
    <path class="cls-83" d="M41.01,119.82c-7.74,.41-11.89-2.09-16.02-5.86-2.32-2.12-3.31-5.03-5.99-6.68-.23-.23-.08-.28-.03-.55,2.16-.5,4.66,.81,6.14,1.92,2.17,1.61,2.69,4.35,4.66,5.65,2.75,1.8,6.16,1.34,9.64,2.66,.34,1.17,1.16,1.81,1.6,2.86Z"/>
    <path class="cls-53" d="M5.14,112.68c4.66,.65,7.87,4.56,10.8,7.74,3.12,6.18,7.02,11.5,14.34,13.08,.08,1.12,.32,1.54,.12,2.56-3.2-.75-6.1-1.67-8.39-3.28-4.81-3.38-6.97-9.38-10.9-13.97-1.92-2.24-4.13-3.97-5.96-6.14Z"/>
    <path class="cls-72" d="M21.43,112.29c1.24,.52,1.92,2.12,2.89,3.16,3.14,3.36,8.03,5.66,13.49,6.52-1.55,.92-2.83,2.09-4.06,3.3-6.95-1.21-10.09-6.6-12.32-12.99Z"/>
    <path class="cls-35" d="M11.92,128.67c.15-.04,.18,.06,.19,.17,1.51,3.51,3.82,7.53,7.05,9.94,3.24,2.41,7.35,4.78,13.15,3.24,.87,.39,1.7,1.84,1.94,2.29-6.23,1.2-13.2-.75-17.23-4.34-2.95-2.63-5.14-5.5-5.1-11.31Z"/>
    <path class="cls-89" d="M90.01,133.86c-.5,2.41-1.52,4.34-3.41,5.47-.85-1.74,.63-4.14,1.01-5.91,1.04-.11,1.99-.14,2.4,.44Z"/>
    <path class="cls-1" d="M121.88,137.89c.68,.03,1.62-.23,2.02,.09,.45,2.09-1.23,4.56-3.09,4.54-.56-1.7,.5-3.38,1.07-4.63Z"/>
    <path class="cls-45" d="M129.25,138.83c-2.77,8.93,5.9,16.81,14.18,13.63-.74,2.6-4.58,3.76-7.16,3.63-5.03-.26-9.75-5.08-10.54-10.14-.28-1.74,.35-3.05-.05-4.94,.63-.53,.72-1.56,.98-2.43,1.17,.45,1.75-.66,2.58,.25Z"/>
    <path class="cls-11" d="M133.25,138.1c.48,.6,.19,2.82,.35,3.65,1.02,5.33,6.42,8.11,11.38,8.45-2.11,3.05-7.39,1.89-10.26-.08-3.13-2.15-4.23-6.77-4.17-10.98,1.33,.04,2.22-.31,2.7-1.04Z"/>
    <path class="cls-30" d="M49.72,150.01c-2.12,4.54-9.23,1.48-10.7-1.53,3.11-1.12,7.84,.49,10.7,1.53Z"/>
    <path class="cls-52" d="M54.86,150.14c-1.01,3.25-4.54,6.8-8.26,7.52-5.22,1.01-9.05-2.73-10.78-7.38,1.11-.21,1.57-1.03,2.69-1.22,1.32,1.68,3.39,3.95,5.88,4.49,3.62,.78,5.95-1.3,7.91-3.29,.72,.29,1.82,.09,2.56-.12Z"/>
    <path class="cls-77" d="M59.55,148.63c.05,3.6-1.98,6.83-3.97,9.16-1.96,1.54-4.57,2.48-7.36,3.27-1.35-.18-2.48-.61-3.71-.93,6.51-1.25,11.19-4.16,12.15-10.45,1.18-.15,2.13-.51,2.88-1.05Z"/>
    <path class="cls-47" d="M22.03,153.29c3.4,2.69,9.71,3.98,14.95,2.42,1.12,.3,1.42,1.52,2.64,1.71-5.23,5.02-15.77,2.34-17.59-4.14Z"/>
    <path class="cls-29" d="M124.96,148.92c.33,.6,.54,1.33,.82,1.98-.53-.2-1.14-.17-1.64,.07,.17-.78,.74-1.19,.82-2.05Z"/>
    <path class="cls-46" d="M80,155.2c-1.69,2.14-4.44,3.31-5.78,5.76-.04-3.08,2.49-5.32,4.24-7.34,.9,.1,1.05,1.02,1.54,1.58Z"/>
    <path class="cls-70" d="M81.55,160.99c-1-.51-1.43-1.63-2.48-2.08,.29-.67,1.24-.74,1.58-1.36,1,.41,.95,2.45,.89,3.44Z"/>
    <path class="cls-21" d="M44.96,161.95c-2.83,1.84-9.04,1.43-11.37-.21,2.65-.73,5.55-1.79,7.96-2.2,.65,1.33,2.13,1.76,3.41,2.41Z"/>
    <path class="cls-50" d="M72.01,164.55c-1.48,.31-2.82,2.85-1.46,4.09,1.75-.13,.73-1.7,1.53-2.63,5.36,.51,1.39,5.33-1.4,5.38-4.87,.09-4.11-8.95,.88-8.83,.66,.1,.31,1.32,.45,1.99Z"/>
    <path class="cls-4" d="M111.47,170.24c.97,.15,1.58,.69,2.77,.6,.03,2.59-.94,4.28-2.5,5.43-.16-1.42,.3-4.17-.28-6.03Z"/>
    <path class="cls-87" d="M217.56,171.03c2.68,4.87,8.51,6.28,13.76,8.34-2.8,2.06-5.51,3.44-9.34,3.91-1.99,.25-4.08-.31-6.05-.09-2.07,.23-4.92,1.98-5.89,3.38-.82,1.19-1.19,3.59-1.24,5-.07,1.94,1.47,5.69,.35,7.68-1.18,2.1-6.56,1.24-8.11,2.93,.08,1.24-.6,2.72-.2,3.67-1.35,.58-3.92,.04-5.28,.61-3.1-2.41-3.48-9.38-.56-12.06-.43-1.55-.94-3.38-1.52-5.24,3.9-2.63,9.7-3.53,12.49-7.17,2.2-5.18,5.03-9.77,11.58-10.98Z"/>
    <path class="cls-7" d="M332.86,172.87c.29-.06,.73,.85,.69,1.36,.17,7.64-1.33,11.38-4.65,16.04-3.09,4.33-7.27,8.52-13.47,9.78-.24-.63,.24-2.44,.04-3.12,10.93-3.34,15.23-12.72,17.39-24.07Z"/>
    <path class="cls-88" d="M235.35,183.4c-2.04-.12-4.19-.14-5.19-1.41,.37-.83,1.43-1.03,1.93-1.74,1.37,.73,2.48,1.77,3.26,3.15Z"/>
    <path class="cls-43" d="M330.87,177.35c-1.9,8.37-6.57,15.72-16.03,17.77-.33-1.3-.72-2.53-1.09-3.8,10.02-.02,12.92-8.06,17.12-13.98Z"/>
    <path class="cls-12" d="M236.3,184.27c.38,.8,.92,1.42,1.21,2.33-4.57,.95-8.61-.27-10.4-3,2.71-1.92,5.28,2.16,9.19,.68Z"/>
    <path class="cls-3" d="M239.46,189.26c-6.6,3.36-13.8-.25-16.87-4.35,.83,0,1.6-.76,2.35-.66,.93,.12,1.17,1.03,2.09,1.73,1.93,1.47,5.46,2.73,9.26,2.14,1.67-.26,2.61-.92,3.17,1.14Z"/>
    <path class="cls-57" d="M323.7,184.83c-1.16,2.02-3.96,4.52-6.73,5.07-1.19,.24-2.68,.38-3.85,0-.99-.33-1.61-1.68-2.68-2.44-4.07-2.89-14.48-4.68-18.67,.31-.53,.63-2.12,3.19-2.37,4.14-1.43,5.39,3.18,10.27,7.32,11.75,1.95,.7,6.81,.47,8.77-.59,5.88-3.18,5.72-14.64-2.88-14.89-3.39-.1-5.9,1.27-7.19,3.08-2.84,4.02-.14,9.71,5.37,9.28,2.96-.23,5.49-3.1,3.9-6.77-.3-.69-1.88-2.05-3.02-2.06-1.66,0-3.39,1.38-3.55,2.55-.19,1.47,.92,2.81,2.11,2.1,1.02-.61-.98-2.03,.78-2.96,1.35-.13,1.69,.84,2.44,1.35,1.37,3.7-3.18,5.47-6.05,3.76-2.79-3.91-.24-9.92,5.64-8.87,2.87,.52,5.5,4.02,5.11,7.64-.51,4.76-6.23,6.89-11.5,4.74-3.83-1.84-6.6-5.36-5.41-10.01,1.7-6.65,14.68-7.5,19.48-2.73,4.29,4.27,3.59,13.66-2,16.21-7.95,3.63-19.54,.95-22.58-5.19-2.39-4.81,.06-11.16,2.47-14.04,4.33-5.18,14.87-4.95,20.94-2.79,3.98,1.41,9.11,4.75,14.17,1.36Z"/>
    <path class="cls-69" d="M188.6,190.5c3.27,3.81,3.44,13.76,1.02,18.09-.8,.26-1.33,.77-2.15,1.01,2.32-5.1,2.29-15.5-1.42-18.8,1,.04,1.49-.39,2.55-.3Z"/>
    <path class="cls-13" d="M181.05,213.56c-.03-1.3,1.31-2.03,1.88-3.02,3-5.23,2.75-14.29-.86-18.64,.44-.36,1.13-.5,1.61-.81,6.01,4.33,5.25,21.29-2.63,22.47Z"/>
    <path class="cls-61" d="M211.82,213.43c-7.19-4.52-17.81-1.69-24.27,2.03-1.48,.85-2.95,1.78-4.46,2.58-3.11,1.66-6.12,3.3-11.02,3.26,2.98-1.13,4.94-3.2,6.9-5.26,6.58-1.31,9.73-7.2,16.83-8.29,6.36-.97,14.07,.89,16.01,5.67Z"/>
    <path class="cls-23" d="M282.87,2.25c1.99,5.08,1.04,12.51-.89,16.53-2.86,5.97-9.85,7.32-15.22,11.51-5.91,4.6-11.1,11.39-11.29,21.4-.16,9,5.17,11.73,10.76,14.89-7.52-1.74-14.35-6.08-14.66-15.99-.5-15.97,16.94-20.91,24.43-30.43,.65-.82,1.5-2.03,2.06-3.03,2.3-4.07,3.81-9.35,4.81-14.87Z"/>
    <path class="cls-37" d="M156.13,221.3c-3.32,1.77-5.92,3.19-7.96,6.05-1.86,2.61-1.48,6.1-3.66,8.05-2.55,2.28-6.13,1.48-9.99,1.92,2.63,2.46,2.19,6.96,4.11,9.71,1.86,2.66,4.89,2.74,8.24,3.83,.36,.74-.16,1.22-1.43,1.41-4.51-.73-5.89,3.71-9.52,3.49-1.2-.07-3.27-.64-4.64-1.26-1.21-.54-2.23-1.95-3.62-2.95-1.22-.88-2.84-1.09-3.56-1.67-1.73-1.4-2.76-3.95-3.05-6.64-1.56,.19-1.29,2.24-1.14,3.17,.43,2.71,3.08,5.05,4.85,6-1.12,4.14,1.1,8.03,1.78,10.73-4.72,1.17-8.8-.73-9.05-5.63-2.37-1.08-4.96-1.75-5.87-4.13-.38-1-.1-2.21-.52-3.27-.83-2.09-3.54-2.74-3.94-5.86-.44-3.5,4.19-5.2,1.6-9.05-1.75,.12-.7,1.94-.59,3.14-1.22,2.38-3.04,4.15-2.21,7.61,.3,1.24,1.09,2.48,1.8,3.22,1.1,1.15,2.56,1.18,2.37,3.74-.07,.96-.75,1.67-.98,2.61-.67,2.78-.75,5.72-1.45,8.31-1.55-.03-1.75-1.79-2.34-3.01-1.05-2.17-2.62-4.55-3.08-7.19-.17-1.01,.11-2.04-.32-2.91-.58-1.17-2.01-1.26-2.67-2.26-1.38-2.13-1.07-6.71-.06-9.15,.48-1.15,1.94-2.59,2.56-4.15,.8-2.03,.6-4.43,.98-6.64,.72-4.2,1.66-9.4,5.36-11.05,3.01-1.35,6.21-.4,9.11-.97,4.55-.9,5.49-5.23,8.79-7.92,1.55,.93,3.63,2.28,6.29,1.36-.79-1.75-2.38-1.38-3.95-2.2-2.2-1.15-3.73-3.6-5.7-4.5-2.97-1.35-5.46-.68-7.6-1.85-2.06-1.13-4.47-3.81-5.43-6.53-1.04-2.94-.72-5.78-3.65-7.71-.89,.1-2.08-.47-2.55,.3-.25,1.07,1.61,1.18,2.09,1.55,1.76,1.37,1.74,3.71,2.49,6.3,.93,3.18,3.87,6.38,6.4,7.76,3.64,1.98,8.83,.73,10.85,5-6.83,.86-13.63,3-18.69-.24-1.84,3.71-7.34,5.96-9.08,9.58-2.25,4.69,.04,13.36-3.22,17.55-2.02,2.58-7.27,5.6-10.69,6.54-2.15,.59-4.19,.26-6.16,1.38-1.82,1.03-3.59,3.29-4.35,4.96-1.46,3.21-.41,7.05-1.54,10.33-.58,1.69-1.01,2.7-2.56,4.15-1.99,1.21-3.14,2.17-5.57,2.46-3.26,.39-6.96-2.19-9.35-.12-2.05,1.78-1.09,5.92-1.58,9.42-3.03-1.17-5.55-2.49-6.12-5.58-.24-1.33,.3-2.66,0-4.03-.43-1.97-2.75-3.97-1.6-6.89,.57-1.45,1.97-1.71,2.24-3.04,.26-1.25-.87-2.78-.54-3.82,1.91-1.87,7.55-.36,8.65-2.96-.46-1.08-1.11,.09-2.01,.09-3.05-.02-6.26,.41-8.34,2.03-.68,1.31-.42,3.07,.21,4.39-1.47,1.85-3.28,5.6-1.26,8.48-.61,1.87-2.62,2.95-3.25,5.1-.67,2.28,.13,5.05-.56,7.72-2.07-.99-4.54-1.73-5.51-4.33-.58-1.55,.03-3.39-.42-5.11-.25-.97-1.23-1.71-1.41-2.68-.25-1.34,.45-2.67,.54-4.24,.07-1.33-.33-2.56-.16-3.47,.6-3.29,3.9-3.25,5.44-5.19-4.6,.16-9.56,2.84-7.1,8.93-.1,2.02-1.75,3.29-2.52,4.88-.84,1.72-1.31,4.14-1.55,6.11-.1,.85-.03,1.75-.61,2.78-.69-.83-1.92-2.04-2.35-3.19-.47-1.3-1.12-2.66-1.29-4.15-.2-1.76,.46-3.63,.14-4.95-.37-1.53-2.63-2.89-2.78-4.64-.15-1.72,1.82-6.27,3.13-7.65,.89-.94,3.1-1.84,4.86-1.88,3.65-.06,5.29,1.28,7.49-.53,2.93-2.42,2.59-6.33,6.63-7.08,3.58-.66,5.05,2.04,7.29-.89,1.16-1.52,1.76-3.91,2.66-5.8,.92-1.94,2.14-2.98,3.63-4.75,3.04-3.6,2.68-10.66,6.14-13.84,2.4-2.21,6.18-2.78,7.8-5.67,1.75-3.14-.07-7.76,1.1-11.77,1.42,.68,2.1,2.18,3.43,2.95,2.05,6.21,5.78,11.58,12.98,11.49-1.63-2.16-4.32-2.56-6.41-4.1-2.63-1.93-3.5-5.38-5.33-8.36-1.49-1.18-2.41-2.99-4.21-3.84-2.18-5.34-8.76-7.98-9.83-14.57-.45-2.78,.34-5.39,1.07-8.66,2.76,3.04,7.33,7.08,12.67,4.73,2.09-.92,4.92-3.54,5.44-5.38,.21-.77,.2-1.66,.07-2.39-.5-2.75-2.81-5.35-5.08-6.91,.49-.54,1.03-1.04,1.58-1.54,5.73,1.91,8.38,14.54,1.71,17.32-1.76,.25-2.04-.43-3.86-.37-2.37,1.88,1.6,3.32,3.97,2.75,3.42-.82,5.78-6.42,5.98-9.43,1.01,.42,2.54,.29,3.34,.94,.58,6.36-3.67,8.32-7.76,10.43,.06,1.65,2.42,.56,3.12,.22,1.57,1.18,4.61,1.65,6.24,.26,1.53,1.05,4.01,.31,5.19,1.41,3.29-1.14,3.55,1.61,6.12,1.55,5.36-.11,7.92-8.68,4-12.64,.75,3.57,1.23,9.8-2.43,10.74-.96,.25-1.98,0-2.95-.41,2.28-1.5,4.92-6.49,2.3-9.63,.13,4.06-.76,9.4-6.02,8.52-.2-.81,1.12-1.25,1.73-2.28,.53-.91,1.08-2.45,1.1-3.9,.02-1.11-.02-3.48-1.11-4.16-1.07,1.42,.07,3.43-.31,5.33-.47,2.41-2.19,5.01-5.65,4.47,.89-2.18,4.68-5.8,2.87-9.29-.88,4.58-3.3,10.63-8.75,8.83-.31-.43,2.06-2.01,2.23-3.22,.5,.64,.07,1.24,.62,1.62,3.26-1.81,5.29-4.75,5.05-9.76,4.37-2.61,11.73-1.97,15.41,.39,.86,5.19,1.33,11.81-3.42,13.35,2.99,1.12,4.58-1.99,4.92-4.44,1.76-.41,2.73-1.54,3.54-2.73,1.2-1.53,1.24-4.13,2.68-5.44,1.98,2.4-.28,5.88-1.29,7.76-.77,.57-2.13,.1-2.53,.67,.68,2.33,2.5,.72,3.46-.52,1.53-2,3.44-5.47,1.63-8.32,.44-.94,1.47-1.34,1.72-2.46,2.2,1.83,1.15,5.98,0,8.06,3.2-1.01,3.21-7.71,.66-9.55,.41-.97,.5-2.23,.76-3.33,2.95,.68,5.25,2.87,4.5,6.2-.34,1.51-2.09,2.31-1.65,3.92,4.7-.96,4.34-12.13-2.35-11.07,.32-2.4,2.32-3.56,4.6-3.51,1.61,.04,2.76,1.62,4.5,2.17,3.93,1.26,7.86-.26,9.01-3.16,3.8-1.09,4.6-4.92,7-7.28,3.26-1.16,4.85-1.77,6.06-3.57,3.62-5.39-.17-17.31-9.26-14.23-2.35,.8-5.56,4.52-5.7,7.59-.23,5.11,6.88,8.38,10.51,5.56,2-1.55,2.29-8.57-1.5-8.72-2.55-.11-5.59,2.71-3.8,4.94,1-1.47,.84-3.27,2.96-3.43,3-.24,3.67,4.55,1.74,5.97-3.13,2.29-7.87-1.61-8.23-3.83-.76-4.58,4.53-7.7,8.66-6.81,3.3,.71,5.61,6.38,4.49,10.05-.38,1.24-.73,1.93-1.69,3.19-1.67,1.21-3.46,2.29-5.93,2.47-8.56,.63-13.84-9.77-8.47-16.83,1.45-1.41,2.26-1.91,3.55-2.54,3.18-1.58,6.97-1.15,10.54-1.77,6.09-1.05,9.02-4.81,11.28-9.68,2.53-4.62,2.86-9.3,1.67-15.28,1.03,.36,1.3,1.87,1.61,3.04,.85,3.26,2.25,8.71,1.48,12.21-.53,2.41-2.47,5.69-4.08,6.78-.87,.59-2.1,.32-2.87,1.41-.64,.83-.36,1.39,.42,1.27,9.85-.65,9.59-15.84,5.68-23.89,18.43-2.17,24.22-17.71,35.44-25.81,2.92-2.11,7.07-4.26,10.95-4.9,3.68-.61,8.66-.31,11.21,.77,3.03,1.29,5.27,4.71,9.2,5.07,3.05,.28,5.79-.84,8.58-.76,3.98,.12,7.32,1.52,9.49,3.23,3.5,2.75,5.77,7.4,13.65,5.97,3.59-.65,6.16-3.21,7.26-5.46,1.52-3.11,.87-8.11-.54-11.88-.53-1.41-1.58-2.5-1.85-4.31-1.25-8.46,1.33-14.8,6.44-19.35,5.04-3.54,11.72-2.99,17.95-3.94,9.86-1.5,16.41-5.92,19.5-14.09,.41-1.08,1.06-2.23,1.32-3.18,2.25-8.36-2.11-17.46-5.31-23.75,1.75,.81,2.45,2.84,3.68,4.41,3.26,4.16,6.83,10.91,6.14,18.03-.5,5.18-2.89,10.44-5.59,13.81-4.73,5.92-14.05,8.45-23.55,9.69-5.22,.68-8.96,1.52-12.07,4.4-4,3.7-6.55,9.5-5.25,17.27,.66,3.96,3.61,8.38,6.2,11.26,2.47,2.75,7.05,5.84,10.4,7.03,3.29,1.17,7.47,.97,11.57,.56-1.57,4.97-.77,11.89,1.61,15.13,3.26,4.44,9.63,5.03,15.39,4.05,5.09-.87,8.25-4.34,11.41-6.76,2.31-2.5,4.65-5.41,4.32-9.54,.76-10.83-4.74-17.11-14.46-15.64-1.05,.16-2.3,.66-3.25,1.07-.98,.42-1.71,1.06-2.34,1.02,.6-1.62,.58-2.99,1.27-4.27,2.13-.92,3.88-2.18,5.32-3.73,5.27,2.23,12.71,3.12,15.39,8.08,1.25,2.3,2.43,8.08,2.01,11.81-.2,1.7-1.4,6.38-2.2,7.98-2.78,5.55-10.09,11.43-17.13,13.79-2.22,.75-4.66,1.29-7.82,1.09-5.8-.36-12.59-5.9-14.3-12.16-.36-1.31-.2-2.47-.39-4.38-2.88,3.5-7.37,5.53-12.88,6.64-.08,2.86-2.64,4.72-1.83,7.96,.49,1.97,1.73,4.4,3.56,5.7,3.43,2.43,9.07,2.54,8.68,9.49-.14,2.48-1.38,4.22-1.54,6.3-.35,4.51,1.53,7.36,2.19,11.81,.43,2.86,0,6-.53,8.45-.55,2.58-1.66,5.49-2.75,8-1.15,2.65-2.85,5.27-3.66,8.05-1.29,4.41-1.02,8.61-1.38,13.8,1.37-.54,1.72-2.01,3.35-2.9,3.91-2.13,10.14-1.66,11.97,1.28-10.42,.11-18.22,6.08-17.98,15.3,.28,10.75,12.91,15.91,25.3,12.39,.96-.27,1.66-1.24,2.67-1.59,2.35-.82,5.2-.19,7.26-1.43-3.64,4.35-10.03,7.66-17.42,7.58-3.91-.04-8.15-.97-11.28-2.41-3.2-1.46-3.99-4.26-6.33-6.12-.74,1.76,1.02,3.79,1.88,5.04,4.34,5.01,14.07,6.81,21.99,4.12,.76,3.07-2.36,6.45-1.56,9.78,.25,1.03,2.51,2.53,2.9,3.35,2.15,4.44-2.91,7.61-1.67,11.43,.52,1.59,3.23,2.18,3.69,4.41,.58,2.86-.94,5.99-.86,9.2,.07,2.57,1.05,4.74,1.09,7.64-.79,2.44-4.01,2.46-5.29,4.46-1.27,1.98-.49,4.79-2.25,6.7-1.43,.27-2.98,.43-3.6,1.45,.54,4.21,.58,8.96,2.03,12.18-4.43-.19-7.3-3.77-9.83-6.69-1.99,.15-4.34-.7-4.71-2.71-.22-1.23,.78-2.43,.75-3.7-.06-1.94-1.74-3.37-.44-5.66,1.05-1.86,3.02-1.79,4.62-3.14,.17-1.47,1.41-2.72,1.09-4.08-2.27-.02-1.8,2.44-2.57,3.78-2.38,1.4-5.4,2.28-5.21,6.1,.09,1.79,1.28,2.94,.58,4.55-.49,1.12-1.88,1.52-2.81,2.7-.68,.86-1.63,2.76-1.83,4.11-.23,1.63,.66,3.11-.51,4.79-4.23-.42-6.1-6.11-6.36-10.88-3.34-3.03-2.42-11.47,1.6-12.9,2.79,.21,5.21-1.58,4.23-3.67-1.59-.51-1.49,1.66-2.46,2.31-.78,.52-1.92,.37-2.72,.68-4.17,1.61-5.95,6.77-3.46,12.25-1.67,2.39-2.15,5.86-3.83,8.23-1.99-1.17-2.29-3.61-2.82-5.55-.64-2.34-1.94-4.34-1.64-7.8,.07-.81,.61-1.51,.62-2.41,.05-3.32-1.6-5.76-.4-8.77,.92-2.31,4.52-4.07,7.52-3.82,1.87,.15,3.22,1.5,5.2,1.59,1.04-.58,1.66-1.52,2.27-2.49,.06-5.05,1.1-9.1-.07-13.55-1.05-3.98-3.43-7.06-3.43-10.83,0-1.7,.91-3.53,.49-5.34-.62-2.64-4.39-4.94-6.74-7.01-5.15-4.56-8.99-11.15-16.03-14.1-2.32-.97-4.68-1.79-6.57-3.36-2.6-2.17-4.91-5.53-6.45-8.86-1.42-3.08-3.76-7.04-6.45-8.86-3.02-2.05-7.23-2.63-10.11-4.67-1.79-1.81-4.18-4.23-4.75-7.66-.45-2.68,.63-6.29-1.63-7.62-1.03,2.51-.61,5.92-.29,9.54-4.29,1.96-8.45,4.3-10.62,8.18-.59,1.07-.6,2.27-1.13,3.35-1.88,3.89-7,6.9-12.28,7.71-4.87,.75-8.56,.69-12.15,2.76-1.03-5.07-6.8-6.53-12.93-6.36-3.74,.1-7.7,.72-10.11-.82-.99-.63-2.68-2.97-3.11-3.88-.56-1.19-.82-3.85-2.18-3.56-1.29,.27,.21,3.28,.55,4,1.45,3.1,3.58,6.51,7.64,6.79,1.93,.13,3.82-.76,5.63-.99,5.5-.7,10,.96,12.13,4.75-4.15-.09-9.79-.07-10.27,3.77,2.7-.32,4.2-2.24,7.03-2.52,8.6-.87,9.41,9.77,7.39,17.24-1.39,5.12-8.1,12-14.27,12.38-3.01,.18-6.76-1.45-7.87-3.85-.69-1.5-.13-3.63-1.5-4.7-2.11,7.63,5.12,10.02,11.46,10.28,12.35,.51,17.84-8.79,28.1-10.27,3.08-.44,6.58-.07,9,.5,2.32,.55,4.72,1.77,6.39,3.55,1.47,1.4-.16,.58,.18,1.08-6.26-2.99-15.01-3.86-21.03-.31-6.61,3.9-10.55,9.81-20.23,10.28-5.88,.28-13.53-2.7-16.4-6.02Zm84.72-121.31c-1.65-2.02-1.77-4.83-2.9-7.38-2.68-5.99-7.18-11.01-15.52-10.82-.18,0-.21,.16-.36,.2,0,.23-.22,.26-.16,.56,1.15,.95,1.67,.36,2.96,.6,5.34,1,10.32,5.7,12.03,10.62,.48,1.39,.47,3.12,1.13,4.71,.88,2.09,3.78,5.13,5.68,3.95-.92-.81-2.05-1.44-2.86-2.43Zm-42.8-6.64c.76,.2,1.24-.96,1.06-.79,3.28-3.3,8.51-2.35,11.53-.16,3.59,2.6,3.84,9.01,9.4,9.09-.78-1.16-2.49-1.84-3.44-3.14-1.27-1.72-1.98-4.22-3.75-5.87-4.16-3.9-10.73-5.85-15.99-1.28,.21,1.19,.42,1.94,1.2,2.14Zm85.3-5.21c1.35,2.86,8.37,6.71,10.78,3.35-4.46,.26-7.71-1.59-10.26-4.11-.12,0-.25,.01-.37,.02-.05,.25-.24,.36-.15,.74Zm-2.6,3.23c.41,3.82,7.63,7.17,10.42,3.55-2.7,.09-5.29,.42-7.2-1.13-1.08-.88-.93-2.44-2.34-3.01-.58-.06-.8,.14-.88,.59Zm5.26,6.9c-4.28,.47-6.28-1.57-7.88-4.03-.12,0-.25,.01-.37,.02-.73,3.75,5.88,7.06,8.24,4.02Zm-12.67-.7c-.2,3.27,5.23,5.67,8.03,3.29-2.33-.4-6.35-.41-6.93-3.34-.36,.02-.73,.03-1.09,.05Zm-2.22,3.4c-.12,0-.85,.27-.7,.77,1.09,2.23,5.79,4.54,7.97,2.01-2.54-.04-5.71-.64-7.27-2.78Zm-81.32,16.2c-2.65-1.73-2.42-7.1-1.74-9.99-4.58,.71-2.23,11.84,1.74,9.99Zm2.72-.67c-.72-7.54,3.95-8.27,2.68-9.47-4.47-1.19-4.88,7.88-2.68,9.47Zm8.59-8.46c-3.88,1.36-5.71,4.6-5.98,9.25,1.8-2.97,2.92-6.56,6.6-7.82,1.4-.6,.22-1.44-.62-1.44Zm59.39,4.96c.51-2.03,3.2-2.36,4.83-2.42-1.12-2.99-7.36-.33-4.83,2.42Zm-62.57,5.63c2.26-2.08,6.01-4.92,9.92-3.39,.98,.06,1-.49,1.05-.97-2.76-3.88-10.45,.26-10.97,4.35Zm63.81-2.57c-.16,.5,.02,1.4,.27,1.5,.43-.02,.95-.17,1.4-.85,.38-2.34,2.76-2.85,4.96-3.52,0-.11,.02-.22,.18-.19-2.46-2.28-6.22,.49-6.82,3.06Zm-80.74,.79c-.82,2.96,7.8,5.56,9.07,2.15-2.66,1.02-6.4,.06-7.09-2.79-.76-1.14-1.74-.23-1.98,.64Zm84.46,4.35c.92-1.92,3.22-4.23,6.05-3.94,.56,.06,.87,1.04,1.3,.31-1.12-4.28-10.83,.62-7.34,3.64Zm-60.69-1.24c-2.18-.14-3.95-.17-4.34,1.3,1.67,.55,2.98,.3,4.99,.87,2.27,.65,3.49,2.88,5.38,1.58-.33-1.99-3.42-3.59-6.03-3.75Zm-17.58,4.11c-2.48,.59-4.63-1.26-6.61-.43,1.76,4.38,10.15,1.84,10.18-1.75-1.58,.26-2.03,1.81-3.56,2.18Zm15.08,5.35c.37,1.8-.24,3.69,1.28,3.97,2.34,.43,1-4.1,.3-5.51-1.21-2.4-2.52-4.13-4.59-4.19,.32,1.68,2.51,3.26,3.01,5.72Zm74.09,1.9c2.74-5.03-.32-12.77-7.25-10.29-3.36,2.56-1.49,8.57,2.39,8.13,1.96-.22,3.36-2.85,2.15-5.04-1.03-.54-2.73-.33-2.7,1.04,.37,.62,1.78,.09,1.7,1.21-1.06,2.08-4.05,.96-4.09-1.28-.23-1.58,.85-2.65,2.06-3.03,4.89-1.52,7.72,8.46,2.27,9.42-1.35,.24-2.43-.51-3.86-.37-.05,3.16,6.2,2.11,7.34,.21Zm-87.52-3.3c-1.87,.8-4.79,.91-6.94,.5-.66-.18-1.4,.43-.68,1.13,4.54,2.8,10.52-.93,11.31-4.92-1.23,1.17-2.2,2.53-3.69,3.28Zm5.08-.58c-1.79,3.84-3.87,4.95-6.03,7.77,.87,1.4,2.88,.29,3.48-.16,2.15-1.66,3.21-5.63,3.63-8.6-.23-.2-.5-.31-1.07,.99Zm3.8,2.55c-.15,1.76-2.66,6.63-.42,6.8,.64,.05,1.51-1.44,1.73-2.28,.69-2.72,.17-7.18-1.48-8.36-.06,1.29,.29,2.54,.18,3.84Zm13.47-2.14c.85,7.02,8.3,6.87,8.71,14.31,.18,3.29-1.27,5.84-1.81,8.33-.23,1.06-.7,3.34,1.09,3.8,.9-.58,.39-1.59,.62-2.41,.57-2.02,1.7-3.81,1.92-5.95,.11-1.05,.1-2.55,0-3.85-.12-1.64-.2-3.95-.61-5.28-.98-3.21-5.53-3.83-7.62-6.43-.95-1.18-.92-2.22-1.64-3.77-.71-.13-.57,.43-.66,1.26Zm67.21,3.92c-.85,1.85-2.6,3.31-4.97,3.53-.82,.07-1.55-.58-2.19,.1,0,1.68,2.27,1.6,3.18,1.5,2.5-.28,5-2.61,4.71-5.16-.24,.01-.49,.02-.73,.03Zm-22.59,10.57c.05,1.98,1.32,4.93,2.4,4.47-1.54-3.98,.58-7.47,2.11-9.8-2.54-1.41-4.61,2.36-4.51,5.34Zm17.43-3.37c.39,2.38,4.25,1.41,5.52,.48,1.25-.92,1.83-2.68,1.66-3.74-1.92,1.52-2.98,3.82-7.18,3.26Zm-21.28-.67c-2.23,2.41-.82,8.13,1.18,9.84,1.16,.96,2.21,.9,3.36,1.31-2.48-2.62-3.96-7.04-2.4-11.67-.66-.54-1.78,.22-2.14,.52Zm8.27,8.59c1.44-2.02,1.46-4.41,3.77-5.67,1.28-.69,4.26-.09,4.09-2.57-5.42-1.4-9.38,3.84-7.86,8.24Zm-36.14-1.27c1.62-1.09,4.11-2.01,6.7-1.77-.64-3.21-7.51-1.42-6.7,1.77Zm53.36-2.82c-.93,.14-1.76-.5-2.56,.12,.02,.25-.21,.78,.31,.88,2.17,2.04,6.39-.13,6.38-2.84-1.7-.04-2.56,1.6-4.13,1.84Zm-7.95,2.38c.94,.05,1.68,.68,2.58,.43,3-.81-.61-2.77-2.51-2.81-3.66-.08-7.65,3.04-7.59,6.21,1.77-1.78,3.97-4.01,7.51-3.83Zm-22.93-.78c-1.74,3.88,3.04,7.62,6.77,7.75,.86,.03,2.29,.06,2.7-1.04-5.08,.06-7.08-4.19-8.68-7.93-.18,0-1.24,2.03-.79,1.23Zm-71.4,4.75c-2.6,2.83-.19,8.59,2.29,9.97-1.14-3.1-1.77-5.75-.79-9.12,.25-.72-.16-1.4-1.51-.85Zm7.71,.38c-1.53-.74-3.9,1.92-4.22,3.85-.24,1.47-.19,3.78,1.29,4.15,1-.73,.1-3.17,.72-4.24,.81-1.11,2.92-1.83,2.21-3.76Zm43.03-.34c-.98,.98-1.85,2.64-1.28,4.09,1.79-2.3,4.12-5.3,8.42-4.24-.07-3.57-5.23-1.75-7.14,.15Zm49.89-2.48c-.39,.35-.39,.94-.12,1.47,2.93,.89,5.5-.56,5.52-3.37-1.64,.95-2.9,3.24-5.41,1.9Zm-105.22,6.13c-.87-1.06-2.04-.8-2.74,.31,.14,5.09,3.37,6.8,7.32,7.73-2.33-1.8-4.35-3.94-4.58-8.03Zm95.49-2.57c2.86-.51,6.79-.08,8.16,2.19,4.82-3.1-7.12-6.49-8.16-2.19Zm-77.78,5.42c.98,.03,2.77,1.01,2.72-.68-.02-.62-.81-1.24-1.53-1.4-3.86-.84-7.24,2.47-8.01,5.13,2.37-.62,3.49-3.18,6.82-3.06Zm45.25-3.92c-10.26-.33-7.49,14.35-.32,16.87,4.3,1.51,9.9-1.5,9.82-5.58-.1-4.77-5.88-9.07-10.01-6.5-2.91,1.81-1.21,7.65,2.03,8.15,4.03,.62,4.77-4.59,2.48-5.79-1.29,.37-2.61-.38-2.7,1.04,.23,.91,1.73-.2,2.03,.27,.88,1.28,0,3.02-1.12,3.53-2.93-.39-3.63-5.43-.84-6.38,3.9-1.32,7.06,3.04,6.53,6.48-.32,2.1-2.83,3.75-4.77,3.88-4.18,.29-8.59-4.5-8.48-9.14,.1-4.06,2.97-6.07,8.19-5.14-.3-1.6-1.84-1.67-2.83-1.7Zm42.66-.31c-.32,2.71,5.87,1.34,3.98-1.1-.6,1.76-2.67,1.04-3.98,1.1Zm-25.32,3c-1.3-.7-2.38-2.61-4.48-1.81-.34,4.42,8.3,4.6,9.38,.85-1.39,.54-2.83,1.04-4.9,.96Zm14.75-1.96c0,.18,.02,.37,.03,.55,3.33,.38,4.42,3.22,6.81,4.63,.84,.28,1.14-.25,1.06-.78-1.09-3.03-4.05-5.03-7.9-4.4Zm-12.89,6.46c-1.19,.38-2.98-.17-3.6,1.27,.12,1.31,1.42,1.54,2.63,1.34,2.74-.44,6.3-4.61,5.54-7.03-.18,0-.37,.02-.55,.02-.56,1.99-1.85,3.71-4.01,4.4Zm11.16-4.36c-.14,.05,.33,.19,.37,.4,2.82,1.04,3.94,4.24,3.33,8.41,.29,1.1,.8,1.27,1.5,.85,3.64-3.09-2.01-10.4-5.21-9.65Zm-93.41,8.15c-1.65-.95-2.12-3.42-3.47-3.69-1.19-.24-1.59,.31-1.4,1.53,.15,.94,1.58,1.44,2.29,1.91,1.42,.93,3.15,1.63,5.18,1.04-.95-.72-1.61-.23-2.6-.79Zm85.86-1.02c-1.17,.89-3.41,.75-3.54,2.73,1.27,1.3,3.37,.23,4.37-.56,2.02-1.62,3.35-5.69,2.35-8.54-.23,0,.1,.45-.2,.51-.12,3.18-1.09,4.41-2.99,5.86Zm-64.31-.34c.63,.35,1.48,2.02,2.1,1.92,.08-.01,.82-.7,.87-.96,.3-1.47-2.31-2.62-3.62-2.95-2.77-.7-6.95-.39-7.07,1.61,2.47-.36,5.7-.74,7.71,.38Zm69.56-4.85c.26,1.48,1.25,1.6,1.59,2.68,1.17,3.67-2.6,5.54-1.29,7.75,4.01-.95,4.06-10.44-.3-10.43Zm-69.08,12.08c-.3-4.03-3.54-6.35-7.33-4.71,1.36,1.35,3.02,1.04,4.15,2.56,.89,1.2,.83,3.02,2.37,3.74,.42-.14,1.1-.96,.81-1.58Zm-17.19-3.89c-1.14,1.61-2.73,3.18-5.36,2.81-1.2-.17-2.17-1.56-3.34-.95-.87,2.79,3.1,3.92,5.64,3.04,1.97-.69,3.65-3.51,3.25-4.91-.06,0-.12,0-.18,0Zm11.13,11.03c2.41-2.97-.64-8-3.54-9.18,2.14,2.33,.8,7.4,3.54,9.18Zm91.3-10.25c1.59,4.43,9.64,1.09,7.91-3.29-.25,.02-.4-.07-.56-.16-.41,3.47-4.22,5.31-7.35,3.45Zm-106.26,7.46c-.05,.75,.22,1.16,.44,1.63,3.94,.14,5.75-3.15,6.48-6.52-.05-.14-.16-.21-.37-.17-1.35,2.45-3.68,3.99-6.54,5.06Zm8.08,.55c-.61,1.24-2.69,2.01-1.84,3.75,3.81,.43,5.94-7.7,2.68-9.47-.67,2.13,.01,3.99-.84,5.72Zm64.11-7.9c-.02,4.02-4.61,7.25-8.51,6.07-.92-.28-1.52-1.49-2.62-1.16-.88,1.34,1.1,2.03,2.12,2.28,5.93,1.48,9.96-2.37,10.7-6.35-.36-.5-.76-.96-1.69-.84Zm2.78,4.63c-.85,3.84-4.49,5.13-9.09,5.55-.55-.05-1.63-1.31-2.02-.27,.41,1.69,3.7,1.65,5.92,1.19,3.37-.69,6.23-3.12,6.31-6.15-.38-.09-.54-.43-1.11-.32Zm-7.99,9.34c-.14,2.51,3.19,2.24,5.03,1.78,3.43-.85,5.99-3.08,6.5-5.98-.04-.2-.21-.28-.38-.35-2.39,2.65-6.03,6.01-11.15,4.54Zm-159.53,4.23c-1.84,7.09,1.4,13.15,7.43,14.31-2.27-2.84-7.08-5.51-7.06-10.3,0-1.57,1.4-2.5,1.09-4.08-.6-.25-.81-.03-1.46,.07Zm44.64,14.79c11.25,.36,11.28-18.02-1.27-15.69-2.56,1.27-5.12,3.32-4.45,6.8,.79,4.12,6.6,5.1,8.5,1.44,.17-.7,1.11-1.66,.21-3.31-.31-1.04-1.38-1.56-2.64-1.71-.44,.3-.81,.66-.86,1.32,.82,.78,2.2,.24,2.29,1.91,.08,1.59-2.19,2.98-3.73,2.55-1.43-.4-2.01-1.99-1.99-3.39,.04-3.51,4.45-4.79,8.09-3.3,5.15,4.15,2.06,11.04-4.23,11.55-.92,.07-1.86-.53-2.55,.3,.18,1.77,1.67,1.5,2.64,1.53Zm13.64-10.15c-.1-2.14-1.82-6.55-3.68-4.41,3.73,3.65,1.73,10.7-2.36,12.39,3.37,.66,6.25-3.84,6.04-7.97Zm108.23-4.61c-1.51,.13-4.26-1.47-4.91,.77,4.81,2.98,12.34-.58,11.44-6.02-.24-.8-.76-1.1-1.1-.13,.07,3.13-2.7,5.15-5.43,5.38Zm8.05-.19c-1.75,1.73-2.75,4.15-6.02,4.49-.76-.37-1.72-.38-1.99,.46,4.27,2.58,9.9-2.17,8.5-6.43-.21,.45-.41,.91-.48,1.49Zm-114.02,6.17c.69,3.58-.41,6.95-3.11,8.02-.54,.38-2.56,.16-1.97,1.01,5.04,1.07,7.87-4.7,6.33-9.63-.71-.07-.73,.5-1.25,.61Zm115.16-1.27c-.76,.93-.93,1.93-1.89,2.65-1.08,.81-2.64,.52-3.59,1.63,2.71,1.95,6.71-1.45,6.03-4.31-.18,0-.37,.02-.55,.03Zm-90.91,26.53c4.97,3.98,11.38,.02,13.94-3.57,.38-.53,.89-1.01,1.28-1.6,.44-.65,.69-1.25,.94-1.8,1.25-2.73,2.3-8.17,.05-10.81-1.48-1.75-4.16-2.55-5.98-2.66-6.59-.37-12.01,5.33-11.03,11.13,.34,2.01,1.82,4.95,4.66,5.83,5.95,1.83,10.84-5.81,9.96-10.35-.55-2.83-4.69-4.53-7.48-3.32-3.51,1.53-5.39,10.84,.8,9.49,2.24-.49,4.12-4.16,1.9-6.5-1.4-.53-2.74-.05-2.5,1.4,1.16,.71,1.4-.56,2.04,.45,.98,1.55-.72,3.13-1.87,3.2-4.01,.25-2.25-5.8-.31-6.76,2.94-1.47,5.67,.54,6.16,2.46,2.06,8.1-11.52,13.21-12.18,2.03,.42-4.08,3-8.84,12.13-7.15,4,1.82,4.17,6.76,2.87,10.67-.65,1.97-4.37,6.42-6.62,7.45-5.53,2.52-9.55-1.11-11.07-5.72-.95,2.35,.89,4.99,2.3,6.12Zm-18.4-17.84c-1.75-1.37-2.06,.99-2.07,2.84-1.4,3.13-3.87,2.3-5.51,3.74,3.93,.46,8.12-1.8,7.58-6.58Zm108.55-1.52c.16,.55-.15,.68-.13,1.1,2.86,1.28,5.9-1.99,5.45-4.83-.25,.02-.41-.07-.56-.16-1.2,1.85-2.37,3.54-4.77,3.88Zm-161.38,7.8c-.59-.51-.9-1.77-1.73-1.75-.97,.02-1.4,.82-1.2,1.71,.28,1.27,4.17,2.88,5.61,2.49-.07-1.43-1.69-1.58-2.67-2.44Zm167.55-4.97c-.12,1.6,1.61,1.17,2.98,1.14,1.46-.73,2.3-1.96,1.86-3.38-1.85,.73-2.32,2.54-4.84,2.24Zm-112.38,9.94c-1.53,1.69-5,3-8.31,2.58-1.29-.17-2.34-1.46-3.33-.58,.02,.48,.05,.97,.07,1.46,3.74,1.82,10.83,.45,11.94-3.3-.05-.14-.16-.2-.37-.16Zm-57.43,9.79c-.18,1.03,1.07,.5,1.16,1.23,1.21,1.09,1,3.8,.98,5.26,3.02-1.35,.38-9.09-2.13-6.5Zm-4.81,2.79c2.11,.27,4.42,2.48,4.19,5.94-.22,.77,0,1.53,.67,.06,2.11-3.92-3.93-9.42-4.86-6Zm52.3-1.86c2.24,.61,3.59,3.07,2.46,5.75,3.89-1.15,.25-8.66-2.46-5.75Zm-6.56,.67c1.92,1.18,4.59,1.64,4.6,4.37,0,1.05-.96,1.53-.62,2.59,4.61-2.19-.24-9.76-3.98-6.96Zm-52.84,13.97c2.66,.43,7.26-1.18,8.26-3.49,1.47-3.39-1.02-6.73-3.26-7.18-2.62-.52-6.04,1.89-5.82,4.85,.26,3.48,5.93,3.81,5.13,.13-1.1-.68-2.32,1.24-3.29,.15,.15-5.22,6.86-3.95,6.08,.82-.33,2.05-5.01,4.82-7.54,3.28-1.1-.67-.64-3.11-1.94-2.29-1.71,1.61,1.48,3.59,2.37,3.74Zm54.76-8.2c-.04-6.2-10.48-4.75-9.71,.08,.26,1.62,3.72,3.47,4.8,.7-.59-.51-2.47,.4-2.6-.61-.77-4.32,6.21-3.56,6.06,.45-.04,1.32-1.3,1.84-1.32,3.17,1.61-.59,2.77-2.15,2.76-3.79Zm-15.88,1.28c.31,2.1,3.47,4.89,4.9,3.07-1.34-1.32-3.18-1.89-2.94-4.08,.19-1.65,2.02-1.57,2.42-3.23-2.34-.66-4.72,1.9-4.38,4.23Zm-6.26,3.22c-1.06-1.2-1.98-4.35-.44-5.66-.27-.02-.19-.43-.22-.72-3.23-.12-2.45,8.36,.66,6.38Zm5.72,.83c-.28-1.43-1.69-1.52-2.14-2.65-.6-1.51,.37-2.58,.71-4.43-3.89,.84-1.95,8.59,1.42,7.08Zm179.84-8.65c1.55-.27,2.68-1.68,4.71-1.13,1.07,.29,1.36,1.52,2.44,1.17,.77-3.85-7.27-3.55-7.14-.04Zm-224.63,10.53c.25,3.57,3.21,5.16,6.45,4.83-.83-1.96-3.5-1.28-4.37-3.28-.42-.97,.27-1.78-.67-2.53-.8,.03-1.04,.57-1.42,.98Zm227.96-9.76c-2.52,.3-4.68,3.31-4.36,4.78,1.48-.86,2.71-3.12,4.8-3.15,1.51-.03,2.15,1.05,3.38,1.86,2.05-1.94-1.5-3.77-3.83-3.48Zm-225.98,17.18c-.45-1.87-3.18-1.86-2.41-4.47-4.13-.62-.15,5.76,2.41,4.47Zm226.05-3.63c1.86-.47,4.02-4.12,3.54-6.76-.72-3.98-5.15-3.38-6.62-.43-1.19,2.67,2.02,4.57,2.46,1.72-.05-.52-1.01-.04-.95-.69,.03-1.34,.6-1.81,1.38-1.9,3.15-.36,2.6,6.97-.79,6.63-1.26-.12-1.54-2.44-2.83-1.7-.94,2.64,1.87,3.61,3.81,3.12Zm-178.8-.56c1.9,1.59,1.39,4.64,.11,6.4,3.19-.25,3.73-9.06-.11-6.4Zm-56.12,2.59c-.05,3.91,2.03,5.45,5.39,5.61-1.13-1.73-4.05-2.43-3.37-5.52-.08-1.29-1.75-1.54-2.02-.09Zm65.25,4.87c-.41,4.87,3.97,6.14,6.96,7.92-1.25-3.38-6.37-3.29-5.86-7.97-.37,.02-.73,.03-1.1,.05Zm-15.51,1.45c-1.44,3.84,1.03,5.84,2.92,7.74,1.05,1.05,1.92,2.25,2.88,2.8,.09-3.42-4.17-4-4.9-6.92-.27-1.09,.58-2.2-.17-3.66-.24,.01-.49,.02-.73,.04Zm185.11-5.78c-1.43,.36-2.82-.58-4.02,.18,1.69,3.47,7.34-.19,7.39-2.54-.05-.2-.22-.27-.38-.35-.96,.83-1.4,2.3-2.99,2.7Zm-2.95,3.61c1.17,3.22,7.41,.68,6.15-1.75-1.2,2.22-3.66,1.64-6.15,1.75Zm-243.37,13.41c-.5,1.1-2.36,1.19-2.86,1.6-1.88,1.56-1.99,5.79-.38,7.71,.1-2.36,.1-4.81,1.37-6.11,1.27-.94,3.14-1.33,3.14-3.44-.73-.58-1.03-.3-1.27,.24Zm-16.64,8.64c-.02-2.76,1.26-4.33,2.09-6.32-2.46-.36-3.92,4.4-2.09,6.32Zm264.66-12.37c1.18-1.82-.13-6.82-2.23-4.66,1.74,1.34,.9,4.38-.11,5.68,.72,.24,1.65-.1,2.33-1.03Zm-4.51-2.54c.21,1.72-.96,1.83-1.5,3.18,3.16,.28,4.2-3.97,1.75-5.76-2.64-.17-.37,1.56-.25,2.57Zm-4.84-1.61c.47,1.29,2.01,2.65,.74,4.18-.77,.35-1.68,.57-1.95,1.37,4.29,.92,5.45-6.36,1.21-5.55Zm-9.59,6.49c.34,1.08,3.09,2.77,3.88,.74-1.86-.45-2.98-1.53-2.36-3.56,1.3-4.28,8.12-1.39,3.51,.75-.81-.14-.87-1.1-1.7-1.2-.29,.32,.06,1.07,.06,1.07,1.28,2.82,4.2,.5,5.06-1.13,.63-.98,.09-1.66-.65-2.17-3.55-3.01-9.06,1.48-7.81,5.49Zm-4.74,12.49c-1.4,2.33,.29,3.79,.63,5.65,.2,1.08-.76,2.69,.69,2.9,.41-.79,.76-1.64,.59-2.96-2.24-2.32-.19-5.39,.95-7.19-.7-.74-2.45,.92-2.86,1.6Zm17.4,7.99c.89-1.71-.98-3.18-.96-4.9,.02-2.11,1.68-2.3,2.38-4.14-4.72-.86-3.98,6.79-1.41,9.04Z"/>
    <path class="cls-14" d="M255.41,62.31c-7.16-2.05-11.91-13.18-8.15-21.79,.98-2.25,3.21-4.73,5-6.82,5.48-6.42,14.74-9.39,21.89-14.01,.28,.2-.52,1.18-1.02,1.7-8.52,8.74-23.48,12.43-22.81,29.8,.2,5.21,2.23,8.47,5.09,11.12Z"/>
    <path class="cls-25" d="M329.11,19.73c8.14,1.85,14.49,9.88,12.88,21.2-.71-.24-1.54-.36-2.23-.63,1.42-9.7-4.2-17.09-10.65-20.57Z"/>
    <path class="cls-2" d="M300.97,25.23c-5.12,5.94-14.3,4.03-22.11,5.23-6.51,1-12.15,5.51-15.3,9.86-2.07,2.87-3.76,6.42-3.7,11.16,.07,5.2,1.58,9.11,4.04,12.09-5.96-1.39-8.64-9.53-6.67-17.46,1.32-5.29,5.9-11.72,10.48-15.14,2.51-1.87,6.58-3.82,9.32-4.46,8.45-1.98,16.04,1.87,23.94-1.29Z"/>
    <path class="cls-20" d="M319.49,29.69c-.15,3.29-1.3,5.73-2.55,8.36-3.44,7.29-9.16,14.53-20.77,14.33-2.48-.04-4.45-.57-6.61-.25-3.43,.51-6.93,2.8-8.74,5.17-5.16,6.77-.87,16.88,4.28,21.23,6.15,5.21,19.24,5.54,22.41-2.5,2.9-7.33-2.86-16.49-8.71-18.1-6.61-1.82-13.9,2.41-14.31,7.44-.69,8.4,11.85,13.78,17.4,7.99,1.93-2.79,1-5.39-.91-7.83-.97-1.24-3.2-2.75-4.16-2.92-3.08-.57-6.17,1.33-6.64,2.87-1.5,4.81,5.07,8.56,6,3.02-1.67-.56-1.62,1.46-3.27,.7-2.06-.95-.49-4.45,1.81-4.48,1.47-.02,4.44,1.95,5.1,3.25,.27,.53,.76,1.74,.67,2.53-.1,.81-1.47,2.2-1.9,2.47-4.65,2.9-12.49-1.73-11.91-8.06,.46-5,8.91-6.07,13.73-4.11,1.59,.65,3.63,2.75,4.4,4.01,2.31,3.79,1.97,10.76-.67,13.22-1.58,1.47-4.9,2.02-6.13,2.12-5.45,.41-10.56-1.82-13.6-5.05-2.62-2.78-4.54-6.58-4.51-10.42,.04-6.32,6.93-9.68,11.98-10.44,2.04-.31,6.45-.11,8.63,.52,1.77,.51,4.92,2.63,6.41,3.92,2.84,2.46,4.65,5.9,5.74,9.44,2.15,6.98-2.09,12.6-7.17,15.35-2.86,1.55-6.51,3.29-11.22,2.9-6.04-.5-12.92-4.95-15.64-9.54-.48-.81-.72-1.95-1.23-2.87-.49-.9-1.22-1.7-1.58-2.49-1-2.23-1.21-5.48-1.1-7.83,.32-6.51,5.9-13.2,12.89-14.51,1.39-.26,3.24-.54,4.58-.72,3.69-.49,7.03-.57,9.74-1.28,10.12-2.63,14.2-7.81,17.57-17.42Z"/>
    <path class="cls-75" d="M33.44,50.92c-1.22,3.18-2.18,7.66-1.44,12.52,.62,4.07,3.31,7.09,5.37,9.1-1.25,.26-2.39,.62-3.62,.9-5.53-2.78-7.58-12.15-4.32-18.3,1.01-1.92,2.84-2.71,4.02-4.22Z"/>
    <path class="cls-76" d="M132.51,122.01c1.77,.16,3.29,.93,5.18,1.04,5.44,.31,13.18-4.09,15.21-7.85,1.52-2.82,1.93-8.17,.71-12.49-1.21-4.31-4.44-7.63-6.77-11.78-3.19-5.69-6.24-11.65-5.71-20.62,.31-5.2,3.16-12.28,6.61-15.69,2.07-2.04,3.83-3.4,7.67-4.39-6.98,4.73-12.28,11.22-11.45,21.77,.24,3.11,1.61,6.38,2.81,9.22,2.36,5.6,5.16,10.3,7.53,16.32,1.76,4.48,4.85,9.6,2.91,15.43-.82,2.47-3.7,6.9-6.72,9.1-4.91,3.56-14.22,4.42-17.96-.09Z"/>
    <path class="cls-58" d="M363.25,49.29c-1.91,5.48-8.35,9.15-16.59,9.74-2.71,.19-5.78-.5-8.82-.69-4.34-.28-8.87-.33-12.61,.58-.45-1.62,.04-3.02-.39-4.38,7.98-1.25,15.71,2.13,23.5,1.12,5.95-.77,10.86-3.26,14.91-6.37Z"/>
    <path class="cls-39" d="M120.9,156.25c2.38-.86,5.54-2.34,8.56-1.13,.95,.38,1.72,1.27,2.83,1.7,1.92,.74,3.97,1.13,7.18,.77-1.27,.56-2.41,1.73-3.58,1.82-2.35,.18-4.36-2.03-6.71-2.44-3.68-.64-6.91,.83-8.29,2.95-1.69,2.6-1,7.68-4.53,9-4.8,1.79-9.59-3.32-14.99-3.34-1.18,0-2.48,.17-3.47,.34-3.24,.56-5.38,2.76-8.11,2.94-2.92,.2-4.07-.86-6.17-2.65-.49-2.24-.44-3.66-.62-5.65-.42-4.59-2.12-10.77-7.38-9.18-2.1,.64-5.21,4.3-2.47,5.98-.5,1.18-.82,2.51-1.1,3.9-3.06-.03-6.34,2.91-6.32,5.97,.02,2.55,1.79,5.58,4.47,5.65,3.36,.09,6.18-2.75,6.11-6.51-.17-1.1-1.21-1.68-2.28-1.91,.39-.4,.47-1.08,.84-1.5,7.36,2.21,4.08,12.74-2.72,12.58-3.98-.09-9.54-4.24-9.2-8.91,.17-2.37,1.56-4.07,3.43-5.11,.82-.46,3-.4,2.64-2.32-5.15-.52-8.99,5.29-7.02,10.77-1.49-1.59-2.89-3.78-2.5-6.48,.52-3.5,5.35-5.6,8.3-6.79,.13-1.37-1.49-1.22-2.07-1.19-2.94,.15-7.78,4.55-8.25,7.89-2.95,1.94-7.58,1.35-9.74-.65,7.99-.58,12.75-5.5,14.07-12.74,3.4,.69,4.4-3.41,7.14-3.99,1.26-.27,2.52,.69,3.84-.18-3.97-3.54-7.26,2.05-10.66,3.24-.31-2.4,1.1-3.09,2.17-4.68,.67-1,1.56-1.75,1.89-2.65,.66-.99,.66-2.01,.79-2.79,.89-5.49-2.49-9.35-5.48-11.65-7.65-4.56-19.73-.86-19.59,8.23,.04,2.3,1.85,6.39,4.19,7.5,1.66,.79,3.43,2.16,5.42,2.32,1.75,.14,3.84-.24,5.47-.62,2.83-.67,4.57-2.52,5.8-5.21,1.11-4.93-1.49-7.42-4.61-8.76-3.67-.84-7.2-.8-9.48,.99-2.44,1.92-4.01,7.22-.48,9.36,2.87,1.75,9.87,1.66,9.95-2.65,.04-2.06-2.08-3.77-3.48-3.87-2.49-.17-5.16,3.02-1.85,3.57,.85-.26-.35-1.45,.27-2.03,.67-.03,1.34-.06,2.01-.1,3.99,7.55-10.65,5.55-7.21-1.5,1.82-3.73,7.88-3.71,10.73-1.6,1.09,.81,2.84,2.94,2.63,5.38-.17,1.94-2.31,4.25-3.62,4.93-6.78,3.55-14.08-1.83-14.12-8.33-.04-7.08,11.4-10.37,17.12-6.1,2.65,1.97,5.3,4.76,4.48,9.68-.84,5.02-6.07,9.05-11.63,9.88-3.02,.45-5.14-.29-7.2-1.14-.64-.26-1.57-.37-2.04-.63-4.22-2.41-7.91-12.35-4.48-17.74,1.17-1.84,2.82-2.33,4.39-4.05-1.13-1.12-2.72,.58-3.6,1.45-1.94,1.93-3.64,4.54-3.65,8.23-.02,4.86,2.49,9.16,4.76,11.87-6.28-.94-9.78-6.54-9.92-12.55-.17-7.62,8.11-13.54,15.64-10.43,6.98,.22,12.37-3.11,12.4-9.18-1.84-.24-1.85,1.96-2.79,3.06-1.1,1.27-3.56,3.2-5.14,3.72-.9,.3-2.36,.46-3.47,.34-.49-.05-.88-.51-1.49-.66-2.33-.58-4.05-.84-5.08-2.88,5.95-.47,11.96-1.82,13.09-6.1-1.23-1.98-1.64,.38-2.68,1.41-1.24,1.24-6.25,3.12-8.64,3.33-4.17,.36-7.67-1.37-9.19-4.52,1.35,.78,3.59,2.04,6.15,2.28,3.62,.34,9.16-1.77,10.83-3.43,.98-.96,1.34-2.6,.21-3.31-1.45,.25-1.46,1.82-1.87,3.02-3.99,2.61-12.08,3.41-15.21-.22,4.08,.93,12.88-1.03,13.33-4.82,.17-1.47-1.68-4.37-3.4-2.22-.03,1.05,1.5,.4,1.53,1.39-2.29,7.34-19.52,5.86-15.8-4.95,9.02,.72,18.84-2.72,20.99-9.58,1.4-4.46-.98-9.92-4.19-11.53-4.54-2.26-10.58-1.04-14.58,1.59-2.06,1.35-4.48,4.2-3.84,8.05,1.05,6.32,10.24,8.14,15.19,3.7,3-2.84,3-8.16-1.34-9.28-3.63-.94-10.16,.97-8.89,5.73,.22,.82,.79,1.17,1.55,1.76,2.92,.36,6.66-1.57,4.6-3.51-1.06,1.02-1.72,2.39-3.73,2.55-4.8-4.93,7.18-7.06,8.48-2.77,1.04,3.43-4.45,7.06-8.11,6.78-2.88-.22-5.93-2.59-6.13-5.76-.17-2.66,1.78-5.08,3.19-6.19,5.55-4.36,15.68-2.19,16.54,5.29,.32,2.76-.27,3.8-2.07,6.69-5.98,6.8-24.67,8.02-23.52-5.69,.05-.61,.41-2.53,.77-3.15,.98-1.66,2.75-4.21,3.78-5.49,2.68-3.32,8.51-4.97,13.51-5.02,7.04-.06,13.32,6.34,13.97,12.91,.81,8.32-7.33,11.38-14.38,13.85,.54,.91,2.28,.42,3.31,.21,4.44-.89,9.72-3.07,11.62-6.21,7.57-2.19,10.4,3.6,13.92,7.97,1.86,2.31,4.79,5.07,8.92,2.89-1.29-.97-2.99-.39-4.25-.9-2.85-1.14-4.18-4.43-5.81-6.88,5.47,.39,8.51-4.96,14.46-4.15,4.46,.61,8.06,3.41,12.62,3.45,3.95,.03,9.52-3.45,13.12-1.34,1.91,1.12,2.85,3.42,3.73,5.51,1.96,4.59,4.65,8.25,10.13,9.24,.49,.5,.21,1.25,.45,1.81,.85,2,2.94,4.45,4.34,6.76,.54,.89,1.43,2.49,1.62,3.41,.32,1.54-.69,3.47-.32,5.14,.31,1.43,3.04,2.92,3.71,4.96,.69,2.09-.48,5.24-3.07,4.9-.14-.95,1.29-1.31,1.34-2.81,.08-2.43-2.65-5.37-4.44-4.92-2.1,.52-2.05,5.62,1.13,4.53,.51-.7-.29-1.25-.63-1.62,.96-.08,2.33,.38,2.45,1.53,.29,2.89-6.25,4.44-6.92,.87-.42-2.24,1.7-3.12,.51-4.97-2.64,.47-1.98,4.87-1.52,6.67-1.63,.26-3.05-2.17-2.61-4.83,.19-1.1,1.61-1.91,.8-2.6-3.21-.44-2.29,6.57-.38,7.53-.45,.42-1.85,.25-2.38,.11-1.14-1.2-2.83-3.76-1.95-6.5,.36-1.13,2.13-1.69,1.14-2.98-3.01,.07-3.13,4.32-2.27,6.33-.32,.43-2.25-1.7-2.5-2.63-.82-3.09,1.78-5.72,1.65-7.95-3.14,2.22-4.07,5.72-2.69,9.28,.89,2.29,4.03,3.31,4.28,5.48,.26,2.24-2.01,4.09-4.01,4.4-2.31,.36-3.09-.95-5.18-1.05-1.21-.05-2.05,.58-3.08,.69-2.13,.23-2.99-.77-5.01-1.41-.56,.86,.32,1.49,.47,2.18,1.84,.84,5.19,1.03,7.52,.2,1.64,.5,3.85,1.17,5.72,.83,.09,1.07-.37,1.64-.63,2.41-3.53-1.81-8.71,.09-9.55,3.37,2.17-.42,3.8-2.71,6.48-2.5,2.55,.2,3.08,2.68,4.42,4.56,1.58,.9,4.19,.66,5.05,2.33,.53,3.16-1.38,3.11-2.88,5.08-1.59,2.1-2.74,4.22-6.63,3.23-1.53-.39-4.01-1.86-5.26-3.05-1.39-1.31-3.23-3.9-4.74-3.45-1.89,.57-.74,3.96,.72,3.63,.52-.09,1.3-1.06,.49-1.3,2.36,1.03,4.12,4.17,7.57,5.33,4,1.34,7.91,1,9-3.35,1.91-.48,2.97-1.63,3.5-3.46,.76-4.53-1.99-6.14-5.6-6.34-.5-.54-.99-1.09-1.36-1.77,.31-.89,1.56-3.17,.68-5.16,.78-.1,1.28-.47,1.79-.81,1.72,1.91,6.44,2.21,8.65,.89,.23,1.3,.74,2.13,.7,3.26-.14,3.34-3.46,5.16-4.4,7.9,2.53,.14,2.81-3.26,6.66-2.51,.53,.5,.82,1.28,1.36,1.77-2.13-.38-7.26,.19-7.03,2.52Zm-49.09-37.88c-7.53,2.81-6.65,16.4,4.77,14.28-.33,7.68,10.92,11.11,15.67,6.06,1.37-1.46,1.12-3.31,2.33-5.05,6.6,3.28,11.46-8.01,4.99-10.85,.32,1.47,.74,2.1,1.08,3.43,.77,3.1-1.47,6.22-5.19,6.65,1.75-1.54,2.73-4.82,2.01-7.97-.23-1.03-.47-1.4-1.95-2.47,.2,1.2,.49,1.9,.69,3.08,.73,4.19-2.6,9.36-6.81,7.28,5.52-1.09,4.63-10.3,.18-12.1,.41,1.48,1.24,2.37,1.65,3.95,1.01,3.98-1.78,7.82-5,6.82,2.77-2.47,2.01-9.56-1.6-10.73-.25,1.56,1.51,2.19,2.01,3.75,1.23,3.89-2.03,8.43-5.37,6.66,1.23-.42,1.41-1.16,1.41-1.16,1.55-3.57,.87-7.96-2.45-9.41-1.8-.42-3-.87-4.42-.53-5.16,1.25-2.75,10.6,2.37,7.76,1.63-1.28-.07-3.68-1.25-3.24-.79,.88,.68,1.72,.29,2.19-4.04,.89-4.04-4.37-1.15-5.08,6.48-1.6,8.24,8.39,2.63,9.4-.74,.13-1.44-.26-2.21-.27-.8,0-1.55,.31-2.37,.29-3.23-.06-6.04-2.55-5.78-6.15,.23-3.06,2.83-3.8,4.65-6.44-.15-.41-.56-.25-1.19-.16Zm-1.63,30.33c-.77,.5-1.34,1.6-1.92,2.1-.8,.7-2.12,1.07-2.67,1.77,2.2,2.1,3.38-1.27,5.02-2.43,.8-.57,2.23-1.12,3.25-1.07,1,.05,1.58,1.23,2.59,.43-1.29-2.37-4.28-2.1-6.27-.81Zm20.11,7.13c.42,1.76,2.84,3.96,4.73,3.26-.65-1.49-2.89-2.46-2.77-4.45,.17-2.9,4.15-1.09,4.99-3.16-3.07-2.18-7.93,.27-6.94,4.35Z"/>
    <path class="cls-42" d="M355.24,62.3c-3.55,5.4-14.04,9.15-24.36,8.08-3.35-.34-6.34-1.53-9.08-2.33,.52-1.16,1.16-2.21,1.87-3.2,6.3,1.38,14.18,2.89,21.48,1.03,1.13-.29,2.25-.91,3.42-1.26,2.39-.72,4.91-1,6.67-2.32Z"/>
    <path class="cls-32" d="M139.23,104.85c-.81,1.65,1.08,1,.3,2.55-1.38,2.73-6.01-.4-4-3.3,2.02-2.89,7.35-.42,7.96,1.83,1.08,3.92-2.76,7.5-5.51,7.77-8.17,.8-10.58-12.16-2.86-14.52,3.84-.6,6.5,.42,8.73,2.71,.68,.7,1.62,1.58,1.94,2.29,1.63,3.7,.92,9.27-1.67,11.43-2.87,2.38-8.07,3.03-11.63,2-6.84-1.98-8.81-12.48-5.09-19,2.19-3.85,8.17-7.4,14.2-5.96,3.3,.79,7.01,3.92,8.94,7.1,3.91,6.54,2.38,12.84-1.41,17.1-4.45,5-15.23,6.25-18.99,1.24,4.56,3,13.06,.58,16.19-2.39,3.37-4.7,2.23-8.5,.74-11.76-1.84-4.02-7.81-7.91-12.92-6-2.13,.8-5.07,2.65-5.61,5.39-1.14,5.72,2.61,10.07,5.82,11.09,5.55,1.76,11.91-2.28,10.81-7.83-.48-2.43-3.78-5.7-7.03-5.54-2.16,.11-5.5,1.71-4.89,5.17,.33,1.86,3.33,3.92,6.02,3.39,2.52-.5,3.69-4.48-.03-4.76Z"/>
    <path class="cls-26" d="M31.67,127.94c-.11,.95-1.24,2.48-1.28,4.09-9.63-1.2-11.23-11.58-17.45-16.97-2.99-2.58-6.44-4.16-11.75-4.59,1.87-2.4,7.42-1.52,9.11-.97,1.85,.6,4.34,2.35,6.06,4.12,3.66,3.78,5.29,10.21,9.04,13.32,1.6,1.33,4.23,2.74,6.27,.99Z"/>
    <path class="cls-81" d="M9.46,119.07c5.87,6.94,10.39,17.03,21.21,19.17,.02,1.06,.82,1.28,.84,2.34-14.3,.44-18.47-10.21-22.06-21.52Z"/>
    <path class="cls-44" d="M14.24,139.18c4.29,3.69,11.02,7.67,19.17,6.63,.5-.06,1.24-.51,1.81-.45,1.25,.14,1.86,1.43,2.84,2.07-9.24,4.89-20.72-.46-23.82-8.24Z"/>
    <path class="cls-55" d="M19.56,147.36c3.46,1.91,8.89,4.92,14.82,3.53,.3,1.01,1.03,1.56,1.22,2.69-6.74,1.88-14.82,.33-16.04-6.22Z"/>
    <path class="cls-16" d="M33.67,163.38c2.88,1.12,8.8,1.93,12.27-.02,1.25,.36,2.22,1.02,3.19,1.69-4.46,3.45-12.57,1.63-15.46-1.67Z"/>
    <path class="cls-68" d="M90.06,170.68c1.04,.07,1.48-.4,2.36-.48,.87,2.57-1.58,4.3-2.45,6.34,.08-1.29,.43-4.09,.1-5.86Z"/>
    <path class="cls-82" d="M330.41,191.3c-2.53,6.55-7.88,12.83-17.35,13.07,.53-.8,.79-1.85,1.54-2.45,7.26-1.72,11.99-5.76,15.81-10.62Z"/>
  </g>
</svg>